<svg width="205" height="156" viewBox="0 0 205 156" fill="none" xmlns="http://www.w3.org/2000/svg">
<path d="M199 46.5C195.345 40.0152 189.985 34.6548 183.5 31C176.587 27.29 168.845 25.3974 161 25.5H100V45.5V115.32C100 134.22 86 134.22 70 134.22C63.7415 134.266 57.5651 132.794 52 129.93C46.8641 127.084 42.596 122.899 39.65 117.82C36.4725 112.326 34.8641 106.065 35 99.72V35.5H45L22.5 0.5L0 35.5H10V100C9.8219 110.084 12.4014 120.025 17.46 128.75C22.4135 137.131 29.6202 143.953 38.26 148.44C47.15 153.17 58.43 155.54 70.02 155.54C86.02 155.54 125.02 155.54 125.02 115.61V45.5H158.02C161.676 45.359 165.301 46.2237 168.5 48C171.855 49.8754 174.625 52.6448 176.5 56C178.58 59.4 180 65.62 180 70.5C180 75.38 178.58 82.16 176.5 85.61C174.42 89.06 172.01 91.94 168.5 93.72C164.99 95.5 162.29 95.5 158 95.5H145V115.5H161C169.22 115.5 176.83 114.5 183.5 110.72C189.987 107.068 195.348 101.707 199 95.22C202.93 88.55 205 78.96 205 70.5C205 61.81 202.93 53.11 199 46.5Z" fill="#6558B1"/>
</svg>
