<svg xmlns="http://www.w3.org/2000/svg" viewBox="0 0 600 600"><g id="Formas"><path d="M480,312H444v72l-24-24-24,24V312H360a24,24,0,0,0-24,24V456a24,24,0,0,0,24,24H480a24,24,0,0,0,24-24V336A24,24,0,0,0,480,312Z"/><path d="M324,336a35.81,35.81,0,0,1,4.58-17.54A143.91,143.91,0,0,0,291,297.32a96,96,0,1,0-102.08,0A144,144,0,0,0,96,432v24a24,24,0,0,0,24,24H333.2a35.82,35.82,0,0,1-9.2-24ZM240,444l-18-24,6-66h24l6,66Zm19.66-111.32-6,12a6,6,0,0,1-5.37,3.32H231.71a6,6,0,0,1-5.37-3.32l-6-12a6,6,0,0,1,5.37-8.68h28.58A6,6,0,0,1,259.66,332.68Z"/></g></svg>