<svg xmlns="http://www.w3.org/2000/svg" viewBox="0 0 600 600"><g id="Formas"><path d="M300,197.14a102.84,102.84,0,0,0-80.27,167.15h0l.24.27c1.59,2,3.26,3.88,5,5.73a110.16,110.16,0,0,1,23.63,45.42H351.43a110.09,110.09,0,0,1,23.66-45.45c1.71-1.83,3.35-3.71,4.93-5.66l.27-.31h0A102.84,102.84,0,0,0,300,197.14Z"/><path d="M248.57,454.29A25.71,25.71,0,0,0,274.29,480h51.42a25.71,25.71,0,0,0,25.72-25.71V428.57H248.57Z"/><rect x="287.14" y="120" width="25.71" height="51.43"/><rect x="178.05" y="165.19" width="25.71" height="51.43" transform="translate(-79.07 190.9) rotate(-45)"/><rect x="120" y="287.14" width="51.43" height="25.71"/><rect x="428.57" y="287.14" width="51.43" height="25.71"/><rect x="383.38" y="178.05" width="51.43" height="25.71" transform="translate(-15.17 345.19) rotate(-45)"/></g></svg>