<svg width="586" height="159" viewBox="0 0 586 159" fill="none" xmlns="http://www.w3.org/2000/svg">
<path d="M552.41 85.2128C550.204 82.9989 547.296 81.6236 544.185 81.324L540.324 68.1965C542.142 66.9638 543.71 65.3961 544.943 63.5772L558.07 67.439C558.371 70.4972 559.705 73.3617 561.851 75.561C563.997 77.7603 566.828 79.1632 569.878 79.5388C572.928 79.9144 576.015 79.2404 578.631 77.6276C581.247 76.0148 583.235 73.5594 584.269 70.6657C585.303 67.772 585.321 64.6123 584.32 61.707C583.319 58.8017 581.359 56.3239 578.761 54.6814C576.164 53.039 573.085 52.3298 570.031 52.6707C566.977 53.0116 564.13 54.3822 561.959 56.5569C561.595 56.9227 561.252 57.3088 560.931 57.7134L547.824 53.8516C547.776 51.2399 547.123 48.675 545.917 46.3579L556.738 35.5367C559.628 36.7629 562.855 36.9456 565.864 36.0536C568.874 35.1616 571.48 33.2503 573.236 30.6475C574.991 28.0447 575.786 24.9124 575.485 21.7875C575.184 18.6626 573.806 15.7398 571.586 13.5199C569.366 11.3 566.443 9.92142 563.318 9.62039C560.193 9.31936 557.061 10.1146 554.458 11.8699C551.855 13.6252 549.944 16.2312 549.052 19.2412C548.16 22.2511 548.343 25.4776 549.569 28.3677L538.748 39.1889C536.426 37.9727 533.854 37.3129 531.234 37.2613L527.372 24.1271C527.777 23.8065 528.163 23.4633 528.528 23.0991C530.703 20.928 532.074 18.0811 532.415 15.0271C532.756 11.9731 532.046 8.89401 530.404 6.2968C528.761 3.6996 526.284 1.73906 523.378 0.73794C520.473 -0.263177 517.313 -0.245194 514.42 0.788926C511.526 1.82305 509.071 3.81166 507.458 6.42739C505.845 9.04312 505.171 12.13 505.547 15.18C505.922 18.2299 507.325 21.061 509.524 23.2072C511.724 25.3535 514.588 26.6869 517.646 26.988L521.508 40.1154C519.689 41.3481 518.122 42.9158 516.889 44.7347L503.761 40.8729C503.46 37.8147 502.127 34.9502 499.981 32.751C497.834 30.5517 495.003 29.1487 491.953 28.7731C488.903 28.3975 485.817 29.0715 483.201 30.6843C480.585 32.2971 478.596 34.7525 477.562 37.6462C476.528 40.54 476.51 43.6996 477.511 46.6049C478.512 49.5102 480.473 51.9881 483.07 53.6305C485.667 55.273 488.746 55.9821 491.8 55.6412C494.854 55.3003 497.701 53.9297 499.872 51.755C500.237 51.3892 500.58 51.0031 500.901 50.5985L514.008 54.4874C514.089 58.8619 515.863 63.0345 518.957 66.1283C522.051 69.2221 526.223 70.9961 530.598 71.0776L534.46 84.2119C534.055 84.5325 533.669 84.8757 533.303 85.2399C531.408 87.1303 530.117 89.5404 529.592 92.1652C529.068 94.79 529.334 97.5114 530.356 99.985C531.379 102.459 533.113 104.573 535.338 106.061C537.563 107.549 540.18 108.343 542.856 108.343C545.533 108.343 548.15 107.549 550.375 106.061C552.6 104.573 554.334 102.459 555.356 99.985C556.379 97.5114 556.645 94.79 556.121 92.1652C555.596 89.5404 554.305 87.1303 552.41 85.2399V85.2128Z" fill="#426DA9"/>
<path d="M189.31 157.309C186.03 157.352 182.822 156.339 180.16 154.421C177.395 152.384 175.317 149.553 174.201 146.305L152.173 84.6041H167.688L186.815 140.82C187.081 141.504 187.481 142.127 187.992 142.653C188.39 143.018 188.912 143.219 189.452 143.215C189.991 143.22 190.511 143.019 190.907 142.653C191.404 142.141 191.763 141.51 191.948 140.82L211.332 84.6041H226.569L204.426 146.319C203.383 149.585 201.318 152.43 198.535 154.435C195.84 156.342 192.612 157.348 189.31 157.309Z" fill="#426DA9"/>
<path d="M324.636 155.618V54.1695H338.163V155.618H324.636Z" fill="#426DA9"/>
<path d="M266.472 157.309C259.709 157.309 253.809 155.661 248.773 152.365C243.748 149.058 239.762 144.397 237.276 138.92C234.59 133.018 233.244 126.595 233.333 120.111C233.235 113.547 234.766 107.062 237.79 101.235C240.73 95.6452 245.198 91.0059 250.674 87.8573C256.294 84.5636 262.847 82.9133 270.53 82.9133C278.214 82.9133 285.484 84.5636 290.868 87.8573C296.171 91.0608 300.487 95.6668 303.339 101.167C306.314 106.934 307.821 113.346 307.728 119.834V155.618H294.202V141.706H293.783C290.82 147.712 285.802 152.456 279.641 155.077C276.252 156.565 271.038 157.309 266.472 157.309ZM270.233 145.189C274.69 145.189 279.857 144.073 283.245 141.848C286.647 139.605 289.37 136.473 291.118 132.792C293.026 128.743 293.979 124.31 293.904 119.834C293.977 115.502 293.052 111.211 291.199 107.295C289.474 103.68 286.803 100.6 283.469 98.3809C280.121 96.149 275.075 94.9993 270.524 94.9993C265.789 94.9993 261.583 96.1152 258.194 98.3809C254.808 100.599 252.126 103.739 250.464 107.43C248.727 111.43 247.825 115.743 247.812 120.104C247.8 124.464 248.677 128.782 250.389 132.792C252.015 136.488 254.676 139.634 258.052 141.848C261.447 144.076 265.514 145.189 270.253 145.189H270.233Z" fill="#426DA9"/>
<path d="M388.887 157.309C382.246 157.309 376.384 155.957 371.303 153.251C366.347 150.679 362.215 146.765 359.379 141.957C356.464 136.952 354.974 131.245 355.071 125.454V84.6041H368.597V125.319C368.521 128.958 369.443 132.548 371.262 135.701C372.955 138.613 375.404 141.013 378.35 142.646C381.299 144.283 385.424 145.101 388.887 145.101C392.522 145.122 396.11 144.281 399.357 142.646C402.331 141.027 404.805 138.625 406.512 135.701C408.328 132.547 409.25 128.957 409.177 125.319V84.6041H422.703V125.454C422.806 131.238 421.326 136.94 418.422 141.943C415.597 146.737 411.491 150.648 406.566 153.238C401.516 155.952 395.623 157.309 388.887 157.309Z" fill="#426DA9"/>
<path d="M476.194 155.618C468.367 155.618 461.45 154.126 455.445 151.141C449.664 148.364 444.775 144.025 441.33 138.615C437.93 133.268 436.23 127.041 436.23 119.935C436.107 113.356 437.619 106.848 440.633 100.998C443.403 95.5412 447.613 90.9455 452.807 87.7084C458.167 84.4372 464.35 82.762 470.628 82.8795C478.171 82.8795 484.389 84.4891 489.281 87.7084C494.119 90.8647 497.931 95.3633 500.251 100.653C502.737 106.282 503.969 112.383 503.863 118.535V125.184H451.319C451.319 127.93 453.301 132.109 455.587 134.909C457.9 137.732 460.909 139.903 464.318 141.206C468.061 142.642 472.043 143.353 476.052 143.302H497.1V155.618H476.194ZM451.319 115.039H489.613C489.506 113.179 489.248 111.331 488.842 109.513C488.418 107.588 487.735 105.729 486.813 103.988C485.906 102.248 484.728 100.663 483.323 99.2939C481.786 97.86 479.982 96.743 478.014 96.007C475.645 95.129 473.133 94.7023 470.608 94.749C467.851 94.697 465.121 95.2972 462.641 96.5007C460.354 97.6288 458.331 99.2258 456.703 101.188C455.074 103.144 453.797 105.368 452.929 107.762C452.063 110.102 451.521 112.551 451.319 115.039V115.039Z" fill="#426DA9"/>
<path d="M134.589 85.2805C132.117 80.8946 128.492 77.2692 124.106 74.7974C119.43 72.2882 114.194 71.0082 108.888 71.0776H67.6326V84.6041V131.825C67.6326 144.608 58.1978 144.608 47.3428 144.608C43.11 144.639 38.9328 143.643 35.1689 141.706C31.6954 139.782 28.8088 136.951 26.8163 133.516C24.6673 129.8 23.5795 125.566 23.6714 121.275V77.8409H30.4347L15.2173 54.1695L0 77.8409H6.76326V121.437C6.6428 128.257 8.38737 134.98 11.8086 140.881C15.1588 146.55 20.0329 151.163 25.8762 154.198C31.8888 157.397 39.5177 159 47.3563 159C58.1776 159 84.5543 159 84.5543 131.994V84.6041H106.873C109.35 84.5063 111.807 85.0912 113.974 86.2949C116.244 87.5634 118.117 89.4363 119.385 91.7056C120.792 94.0051 121.752 98.2118 121.752 101.512C121.752 104.813 120.792 109.398 119.385 111.732C117.978 114.065 116.348 116.013 113.974 117.217C111.601 118.42 109.761 118.42 106.859 118.42H98.0672V131.947H108.888C114.448 131.947 119.595 131.271 124.106 128.714C128.493 126.244 132.119 122.618 134.589 118.231C137.247 113.727 138.647 107.234 138.647 101.512C138.647 95.635 137.247 89.751 134.589 85.2805Z" fill="#6558B1"/>
</svg>
