<svg id="Logos" xmlns="http://www.w3.org/2000/svg" viewBox="0 0 985 335"><defs><style>.cls-1{fill:#426da9;}.cls-2{fill:#6558b1;}</style></defs><path class="cls-1" d="M886.78,165.9a19.85,19.85,0,0,0-12.16-5.75l-5.71-19.41a25.6,25.6,0,0,0,6.83-6.83l19.41,5.71a20,20,0,1,0,5.75-16.09,20.22,20.22,0,0,0-1.52,1.71L880,119.53a25,25,0,0,0-2.82-11.08l16-16a20,20,0,1,0-10.6-10.6l-16,16A25,25,0,0,0,855.47,95l-5.71-19.42a20.22,20.22,0,0,0,1.71-1.52,20,20,0,1,0-16.09,5.75l5.71,19.41a25.6,25.6,0,0,0-6.83,6.83l-19.41-5.71a20,20,0,1,0-5.75,16.09,20.22,20.22,0,0,0,1.52-1.71L830,120.47A25,25,0,0,0,854.53,145l5.71,19.42a20.22,20.22,0,0,0-1.71,1.52,20,20,0,1,0,28.25,0Z"/><path class="cls-1" d="M349.91,272.5a22.64,22.64,0,0,1-13.53-4.27,25,25,0,0,1-8.81-12L295,165h22.94l28.28,83.12a8.12,8.12,0,0,0,1.74,2.71,3.16,3.16,0,0,0,2.16.83,3.12,3.12,0,0,0,2.15-.83,6.2,6.2,0,0,0,1.54-2.71L382.47,165H405l-32.74,91.25a23.67,23.67,0,0,1-8.71,12A23.15,23.15,0,0,1,349.91,272.5Z"/><path class="cls-1" d="M550,270V120h20V270Z"/><path class="cls-1" d="M464,272.5q-15,0-26.17-7.31a47.12,47.12,0,0,1-17-19.88A65,65,0,0,1,415,217.5a58.7,58.7,0,0,1,6.59-27.91,49.29,49.29,0,0,1,19.05-19.78c8.31-4.87,18-7.31,29.36-7.31s22.11,2.44,30.07,7.31a49.74,49.74,0,0,1,18.44,19.68,58.38,58.38,0,0,1,6.49,27.6V270H505V249.43h-.62a41.38,41.38,0,0,1-20.91,19.77C478.46,271.4,470.75,272.5,464,272.5Zm5.56-17.92c6.59,0,14.23-1.65,19.24-4.94a33,33,0,0,0,11.64-13.39,43.24,43.24,0,0,0,4.12-19.16,41.71,41.71,0,0,0-4-18.54,32.81,32.81,0,0,0-11.43-13.18c-4.95-3.3-12.41-5-19.14-5-7,0-13.22,1.65-18.23,5a31.41,31.41,0,0,0-11.43,13.38,47.41,47.41,0,0,0-.11,37.5,30.88,30.88,0,0,0,11.33,13.39Q459.08,254.58,469.59,254.58Z"/><path class="cls-1" d="M645,272.5q-14.73,0-26-6a44,44,0,0,1-17.63-16.7A46.91,46.91,0,0,1,595,225.4V165h20v60.2a29.47,29.47,0,0,0,3.94,15.35,27.61,27.61,0,0,0,10.48,10.27c4.36,2.42,10.46,3.63,15.58,3.63a34,34,0,0,0,15.48-3.63,27.45,27.45,0,0,0,10.58-10.27A29.57,29.57,0,0,0,675,225.2V165h20v60.4a46.91,46.91,0,0,1-6.33,24.38,44.26,44.26,0,0,1-17.53,16.7Q659.94,272.5,645,272.5Z"/><path class="cls-1" d="M774.09,270q-17.36,0-30.68-6.62a50.85,50.85,0,0,1-20.87-18.52Q715,233,715,217.24a58.73,58.73,0,0,1,6.51-28,49.62,49.62,0,0,1,18-19.65,48.83,48.83,0,0,1,26.35-7.14q16.73,0,27.58,7.14a43.91,43.91,0,0,1,16.22,19.14A62.77,62.77,0,0,1,815,215.17V225H737.31c0,4.06,2.93,10.24,6.31,14.38a31,31,0,0,0,12.91,9.31,46.78,46.78,0,0,0,17.35,3.1H805V270Zm-36.78-60h56.62a50.87,50.87,0,0,0-1.14-8.17,32.28,32.28,0,0,0-3-8.17,27.34,27.34,0,0,0-5.16-6.94,23.64,23.64,0,0,0-7.85-4.86A29.91,29.91,0,0,0,765.83,180a25.87,25.87,0,0,0-11.78,2.59,26.85,26.85,0,0,0-8.78,6.93,32.51,32.51,0,0,0-5.58,9.72A40.43,40.43,0,0,0,737.31,210Z"/><path class="cls-2" d="M269,166a40.77,40.77,0,0,0-15.5-15.5A46.3,46.3,0,0,0,231,145H170v20h0v69.82c0,18.9-13.95,18.9-30,18.9a38.72,38.72,0,0,1-18-4.29,32.47,32.47,0,0,1-12.35-12.11,34.67,34.67,0,0,1-4.65-18.1V155h10L92.5,120,70,155H80l0,64.46a55.37,55.37,0,0,0,7.46,28.75,52,52,0,0,0,20.8,19.69c8.89,4.73,20.17,7.1,31.76,7.1,16,0,55,0,55-39.93V165h33a20,20,0,0,1,10.5,2.5,20.78,20.78,0,0,1,8,8c2.08,3.4,3.5,9.62,3.5,14.5s-1.42,11.66-3.5,15.11-4.49,6.33-8,8.11S232.29,215,228,215H215v20h16c8.22,0,15.83-1,22.5-4.78a40.7,40.7,0,0,0,15.5-15.5c3.93-6.66,6-16.26,6-24.72C275,181.31,272.93,172.61,269,166Z"/></svg>