<svg width="188" height="52" viewBox="0 0 188 52" fill="none" xmlns="http://www.w3.org/2000/svg">
<path d="M177.509 27.3819C176.8 26.6705 175.866 26.2285 174.866 26.1323L173.625 21.9139C174.21 21.5178 174.713 21.0141 175.11 20.4296L179.328 21.6705C179.425 22.6532 179.853 23.5737 180.543 24.2804C181.232 24.9871 182.142 25.4379 183.122 25.5586C184.102 25.6793 185.094 25.4627 185.935 24.9445C186.775 24.4262 187.414 23.6372 187.747 22.7074C188.079 21.7775 188.085 20.7622 187.763 19.8286C187.441 18.8951 186.811 18.0988 185.977 17.5711C185.142 17.0433 184.153 16.8154 183.171 16.9249C182.19 17.0345 181.275 17.4749 180.578 18.1737C180.461 18.2913 180.35 18.4153 180.247 18.5453L176.035 17.3044C176.02 16.4652 175.81 15.641 175.423 14.8964L178.9 11.4192C179.828 11.8132 180.865 11.8719 181.832 11.5853C182.8 11.2986 183.637 10.6845 184.201 9.84812C184.765 9.01174 185.021 8.00522 184.924 7.00108C184.827 5.99694 184.384 5.05771 183.671 4.34439C182.958 3.63107 182.018 3.18807 181.014 3.09134C180.01 2.99461 179.004 3.25017 178.167 3.8142C177.331 4.37824 176.717 5.21563 176.43 6.18284C176.143 7.15005 176.202 8.18684 176.596 9.11551L173.119 12.5927C172.373 12.202 171.546 11.9899 170.704 11.9734L169.463 7.75286C169.593 7.64985 169.718 7.53956 169.835 7.42253C170.534 6.72487 170.974 5.81005 171.084 4.8287C171.193 3.84734 170.966 2.85793 170.438 2.02336C169.91 1.18878 169.114 0.55879 168.18 0.237096C167.247 -0.0845987 166.231 -0.0788201 165.301 0.253479C164.372 0.585779 163.583 1.22479 163.064 2.06532C162.546 2.90584 162.329 3.89778 162.45 4.87783C162.571 5.85788 163.022 6.76762 163.728 7.45728C164.435 8.14694 165.356 8.57541 166.338 8.67216L167.579 12.8905C166.995 13.2866 166.491 13.7903 166.095 14.3748L161.877 13.1339C161.78 12.1512 161.351 11.2307 160.662 10.524C159.972 9.81731 159.062 9.3665 158.082 9.24579C157.102 9.12509 156.11 9.34169 155.27 9.85994C154.429 10.3782 153.79 11.1672 153.458 12.097C153.126 13.0269 153.12 14.0422 153.441 14.9758C153.763 15.9094 154.393 16.7056 155.228 17.2334C156.062 17.7611 157.052 17.989 158.033 17.8795C159.014 17.7699 159.929 17.3295 160.627 16.6307C160.744 16.5132 160.854 16.3891 160.957 16.2591L165.169 17.5087C165.195 18.9144 165.765 20.2552 166.759 21.2493C167.754 22.2435 169.094 22.8136 170.5 22.8397L171.741 27.0602C171.611 27.1633 171.487 27.2735 171.369 27.3906C170.76 27.998 170.345 28.7725 170.177 29.6159C170.008 30.4594 170.094 31.3339 170.422 32.1287C170.751 32.9235 171.308 33.603 172.023 34.0811C172.738 34.5591 173.579 34.8143 174.439 34.8143C175.299 34.8143 176.14 34.5591 176.855 34.0811C177.57 33.603 178.127 32.9235 178.456 32.1287C178.785 31.3339 178.87 30.4594 178.701 29.6159C178.533 28.7725 178.118 27.998 177.509 27.3906V27.3819Z" fill="#DFE6EF"/>
<path d="M60.832 50.5489C59.7778 50.5627 58.747 50.2373 57.8916 49.621C57.0033 48.9662 56.3355 48.0566 55.9769 47.013L48.8986 27.1862H53.8841L60.0301 45.2505C60.1155 45.4701 60.2441 45.6704 60.4082 45.8395C60.5363 45.9568 60.704 46.0212 60.8777 46.0198C61.0507 46.0215 61.2179 45.957 61.3449 45.8395C61.5048 45.6748 61.62 45.4721 61.6796 45.2505L67.9082 27.1862H72.8046L65.6893 47.0174C65.3539 48.067 64.6904 48.9812 63.7964 49.6253C62.9303 50.238 61.8928 50.5613 60.832 50.5489Z" fill="#DFE6EF"/>
<path d="M104.317 50.0057V17.4065H108.664V50.0057H104.317Z" fill="#DFE6EF"/>
<path d="M85.627 50.549C83.4538 50.549 81.5579 50.0194 79.9396 48.9603C78.325 47.8977 77.0441 46.3998 76.245 44.6399C75.3821 42.7433 74.9494 40.6794 74.978 38.596C74.9466 36.4868 75.4386 34.4027 76.4102 32.5304C77.3551 30.7342 78.7909 29.2434 80.5503 28.2316C82.3563 27.1732 84.4622 26.643 86.931 26.643C89.3998 26.643 91.7361 27.1732 93.466 28.2316C95.1703 29.261 96.5571 30.7411 97.4736 32.5086C98.4295 34.3618 98.9139 36.4219 98.884 38.5069V50.0057H94.5375V45.5352H94.4027C93.4507 47.465 91.8384 48.9894 89.8584 49.8318C88.7696 50.3099 87.094 50.549 85.627 50.549ZM86.8354 46.6545C88.2676 46.6545 89.9279 46.2959 91.0167 45.5809C92.1098 44.86 92.9847 43.8536 93.5464 42.6709C94.1597 41.3697 94.466 39.9451 94.4418 38.5069C94.4653 37.1149 94.1679 35.7361 93.5725 34.4776C93.0182 33.3162 92.1598 32.3264 91.0885 31.6132C90.0127 30.8961 88.3914 30.5266 86.9288 30.5266C85.4075 30.5266 84.0558 30.8852 82.9669 31.6132C81.8788 32.326 81.0169 33.3349 80.4829 34.5211C79.9249 35.8065 79.635 37.1922 79.6309 38.5935C79.6268 39.9948 79.9086 41.3822 80.459 42.6709C80.9812 43.8585 81.8365 44.8693 82.9213 45.5809C84.0123 46.2966 85.3191 46.6545 86.8419 46.6545H86.8354Z" fill="#DFE6EF"/>
<path d="M124.963 50.5489C122.829 50.5489 120.946 50.1143 119.313 49.245C117.72 48.4186 116.393 47.1609 115.481 45.6156C114.544 44.0075 114.066 42.1736 114.097 40.3128V27.1862H118.443V40.2694C118.419 41.4387 118.715 42.5924 119.3 43.6053C119.844 44.5411 120.631 45.3123 121.577 45.8373C122.525 46.3632 123.851 46.6262 124.963 46.6262C126.131 46.6328 127.284 46.3625 128.327 45.8373C129.283 45.3169 130.078 44.5451 130.627 43.6053C131.21 42.592 131.507 41.4385 131.483 40.2694V27.1862H135.83V40.3128C135.863 42.1714 135.387 44.0036 134.454 45.6113C133.546 47.1516 132.227 48.4084 130.644 49.2406C129.022 50.1128 127.128 50.5489 124.963 50.5489Z" fill="#DFE6EF"/>
<path d="M153.018 50.0056C150.503 50.0056 148.28 49.5261 146.351 48.5669C144.493 47.6745 142.922 46.2803 141.815 44.542C140.723 42.8237 140.176 40.8228 140.176 38.5394C140.137 36.4252 140.623 34.3341 141.591 32.4543C142.481 30.7007 143.834 29.224 145.503 28.1838C147.226 27.1326 149.212 26.5943 151.23 26.6321C153.654 26.6321 155.652 27.1493 157.224 28.1838C158.778 29.198 160.003 30.6436 160.749 32.3434C161.547 34.1521 161.943 36.1127 161.909 38.0896V40.2259H145.025C145.025 41.1083 145.662 42.4513 146.396 43.3511C147.139 44.2582 148.107 44.9556 149.202 45.3744C150.405 45.8359 151.684 46.0645 152.973 46.0481H159.736V50.0056H153.018ZM145.025 36.966H157.33C157.296 36.3684 157.213 35.7746 157.082 35.1904C156.946 34.5719 156.727 33.9746 156.43 33.4149C156.139 32.8558 155.76 32.3467 155.309 31.9066C154.815 31.4458 154.235 31.0869 153.603 30.8504C152.842 30.5683 152.035 30.4312 151.223 30.4462C150.337 30.4295 149.46 30.6223 148.663 31.009C147.928 31.3716 147.278 31.8847 146.755 32.5151C146.231 33.1438 145.821 33.8585 145.542 34.6276C145.264 35.3798 145.09 36.1666 145.025 36.966V36.966Z" fill="#DFE6EF"/>
<path d="M43.2482 27.4036C42.4539 25.9943 41.2889 24.8293 39.8796 24.035C38.3772 23.2287 36.6946 22.8174 34.9897 22.8397H21.7328V27.1863V42.3601C21.7328 46.4676 18.701 46.4676 15.2129 46.4676C13.8528 46.4775 12.5105 46.1576 11.301 45.5352C10.1849 44.9168 9.25729 44.0072 8.61704 42.9034C7.92649 41.7094 7.57693 40.3488 7.60646 38.9698V25.013H9.77974L4.88987 17.4065L0 25.013H2.17328V39.0219C2.13457 41.2135 2.69516 43.3739 3.79454 45.2701C4.87106 47.0915 6.43728 48.5742 8.31495 49.5493C10.247 50.5772 12.6985 51.0923 15.2173 51.0923C18.6945 51.0923 27.1703 51.0923 27.1703 42.4144V27.1863H34.3421C35.1382 27.1548 35.9276 27.3428 36.624 27.7296C37.3532 28.1372 37.9551 28.739 38.3627 29.4682C38.8147 30.2071 39.1233 31.5589 39.1233 32.6195C39.1233 33.68 38.8147 35.1535 38.3627 35.9033C37.9106 36.6531 37.3869 37.279 36.624 37.6658C35.8612 38.0527 35.2701 38.0527 34.3378 38.0527H31.5125V42.3992H34.9897C36.7762 42.3992 38.43 42.1819 39.8796 41.3604C41.2894 40.5667 42.4545 39.4016 43.2482 37.9918C44.1023 36.5444 44.5522 34.4581 44.5522 32.6195C44.5522 30.7309 44.1023 28.8401 43.2482 27.4036Z" fill="#DFE6EF"/>
</svg>
