<svg width="95" height="72" viewBox="0 0 95 72" fill="none" xmlns="http://www.w3.org/2000/svg">
<path d="M92.2195 21.3171C90.5258 18.3119 88.0417 15.8278 85.0366 14.1341C81.8331 12.4149 78.2452 11.5378 74.6098 11.5854H46.3415V20.8537V53.2093C46.3415 61.9678 39.8537 61.9678 32.439 61.9678C29.5387 61.989 26.6765 61.3069 24.0976 59.9798C21.7175 58.661 19.7396 56.7215 18.3744 54.3678C16.9019 51.8218 16.1565 48.9205 16.2195 45.98V16.2195H20.8537L10.4268 0L0 16.2195H4.63415V46.1098C4.55161 50.7828 5.74698 55.3896 8.09122 59.4329C10.3867 63.3168 13.7264 66.4783 17.7302 68.5576C21.85 70.7495 27.0773 71.8478 32.4483 71.8478C39.8629 71.8478 57.9361 71.8478 57.9361 53.3437V20.8537H73.2288C74.9231 20.7883 76.603 21.189 78.0854 22.0122C79.6402 22.8813 80.9236 24.1646 81.7927 25.7195C82.7566 27.2951 83.4146 30.1776 83.4146 32.439C83.4146 34.7005 82.7566 37.8424 81.7927 39.4412C80.8288 41.04 79.712 42.3746 78.0854 43.1995C76.4588 44.0244 75.2076 44.0244 73.2195 44.0244H67.1951V53.2927H74.6098C78.419 53.2927 81.9456 52.8293 85.0366 51.0776C88.0427 49.3852 90.5272 46.9008 92.2195 43.8946C94.0407 40.8037 95 36.3595 95 32.439C95 28.412 94.0407 24.3802 92.2195 21.3171Z" fill="#426DA9"/>
</svg>
