<svg width="311" height="236" viewBox="0 0 311 236" fill="none" xmlns="http://www.w3.org/2000/svg">
<path d="M261.78 125.994C258.519 122.72 254.219 120.687 249.62 120.244L243.91 100.834C246.599 99.0111 248.917 96.6932 250.74 94.0038L270.15 99.7138C270.595 104.236 272.567 108.471 275.74 111.723C278.914 114.975 283.1 117.049 287.609 117.604C292.119 118.16 296.683 117.163 300.55 114.778C304.418 112.394 307.358 108.763 308.887 104.485C310.416 100.206 310.443 95.5343 308.963 91.2386C307.483 86.9429 304.584 83.2792 300.744 80.8507C296.903 78.4222 292.351 77.3737 287.835 77.8777C283.32 78.3817 279.11 80.4083 275.9 83.6238C275.362 84.1646 274.854 84.7355 274.38 85.3338L255 79.6238C254.929 75.7622 253.963 71.9697 252.18 68.5438L268.18 52.5438C272.453 54.3567 277.224 54.6269 281.674 53.308C286.125 51.9891 289.978 49.1632 292.573 45.3148C295.169 41.4663 296.344 36.835 295.899 32.2146C295.454 27.5942 293.416 23.2724 290.134 19.9902C286.851 16.708 282.53 14.6696 277.909 14.2245C273.289 13.7794 268.658 14.9553 264.809 17.5506C260.961 20.1459 258.135 23.9991 256.816 28.4495C255.497 32.9 255.767 37.6707 257.58 41.9438L241.58 57.9438C238.148 56.1456 234.344 55.1699 230.47 55.0938L224.75 35.6738C225.354 35.2024 225.928 34.6948 226.47 34.1538C229.686 30.9436 231.712 26.7342 232.216 22.2187C232.72 17.7031 231.672 13.1505 229.243 9.31031C226.815 5.47014 223.151 2.57133 218.855 1.0911C214.559 -0.389128 209.888 -0.362538 205.609 1.16649C201.331 2.69551 197.7 5.63583 195.315 9.50339C192.931 13.3709 191.934 17.9352 192.49 22.4447C193.045 26.9543 195.119 31.1403 198.371 34.3137C201.623 37.4871 205.858 39.4586 210.38 39.9038L216.09 59.3138C213.401 61.1364 211.083 63.4543 209.26 66.1438L189.85 60.4338C189.405 55.912 187.433 51.6766 184.26 48.4248C181.087 45.173 176.901 43.0987 172.391 42.5433C167.881 41.9879 163.317 42.9845 159.45 45.3692C155.582 47.7538 152.642 51.3842 151.113 55.6629C149.584 59.9415 149.557 64.6132 151.037 68.9089C152.518 73.2047 155.416 76.8684 159.257 79.2969C163.097 81.7253 167.649 82.7739 172.165 82.2698C176.681 81.7658 180.89 79.7392 184.1 76.5238C184.639 75.9829 185.146 75.412 185.62 74.8138L205 80.5638C205.121 87.0318 207.744 93.2014 212.318 97.7758C216.892 102.35 223.062 104.973 229.53 105.094L235.24 124.514C234.642 124.988 234.071 125.495 233.53 126.034C230.728 128.829 228.819 132.392 228.043 136.273C227.267 140.154 227.661 144.178 229.173 147.836C230.685 151.493 233.249 154.619 236.539 156.819C239.829 159.019 243.697 160.193 247.655 160.193C251.613 160.193 255.481 159.019 258.771 156.819C262.062 154.619 264.625 151.493 266.137 147.836C267.65 144.178 268.043 140.154 267.267 136.273C266.492 132.392 264.582 128.829 261.78 126.034V125.994Z" fill="#426DA9"/>
<path d="M199 126.094C195.345 119.609 189.985 114.249 183.5 110.594C176.587 106.884 168.845 104.991 161 105.094H100V125.094V194.914C100 213.814 86.05 213.814 70 213.814C63.7415 213.86 57.5651 212.388 52 209.524C46.8641 206.678 42.596 202.493 39.65 197.414C36.4725 191.92 34.8641 185.659 35 179.314V115.094H45L22.5 80.0938L0 115.094H10V179.554C9.8219 189.638 12.4014 199.579 17.46 208.304C22.4135 216.685 29.6202 223.507 38.26 227.994C47.15 232.724 58.43 235.094 70.02 235.094C86.02 235.094 125.02 235.094 125.02 195.164V125.094H158.02C161.683 124.949 165.315 125.814 168.52 127.594C171.875 129.469 174.645 132.239 176.52 135.594C178.6 138.994 180.02 145.214 180.02 150.094C180.02 154.974 178.6 161.754 176.52 165.204C174.44 168.654 172.03 171.534 168.52 173.314C165.01 175.094 162.29 175.094 158 175.094H145V195.094H161C169.22 195.094 176.83 194.094 183.5 190.314C189.987 186.662 195.348 181.301 199 174.814C202.93 168.144 205 158.554 205 150.094C205 141.404 202.93 132.704 199 126.094Z" fill="#6558B1"/>
</svg>
