<svg width="100" height="121" viewBox="0 0 100 121" fill="none" xmlns="http://www.w3.org/2000/svg">
<path d="M0.90918 0.0909119L0.90918 2.93791L5.36554 11.1089C4.82057 11.6189 4.38614 12.2359 4.08914 12.9209C3.79214 13.6059 3.63889 14.3439 3.63889 15.0909C3.63889 15.8379 3.79214 16.5759 4.08914 17.2609C4.38614 17.9459 4.82057 18.5629 5.36554 19.0729L0.90918 27.2436L0.90918 32.9382L7.53754 45.0909L0.90918 57.2436L0.90918 62.9382L5.36554 71.1091C4.82057 71.6193 4.38614 72.236 4.08914 72.9209C3.79214 73.6058 3.63889 74.3444 3.63889 75.0909C3.63889 75.8374 3.79214 76.576 4.08914 77.2609C4.38614 77.9458 4.82057 78.5625 5.36554 79.0727L0.90918 87.2436L0.90918 92.9382L7.53754 105.091L0.90918 117.244L0.90918 120.091H2.46263L9.091 107.938L15.7194 120.091H18.8263L24.1227 110.382C24.9971 110.601 25.9122 110.601 26.7867 110.382L32.083 120.091H35.1899L41.8183 107.938L48.4467 120.091H51.5536L56.8499 110.382C57.7243 110.601 58.6395 110.601 59.5139 110.382L64.8103 120.091H67.9172L74.5456 107.938L81.1739 120.091H84.2808L90.1216 109.383C90.6423 109.479 91.1761 109.479 91.6968 109.383L97.5376 120.091H99.091V117.244L94.0903 108.08C94.8499 107.272 95.2728 106.204 95.2728 105.095C95.2728 103.986 94.8499 102.919 94.0903 102.111L99.091 92.9469V87.2524L92.4627 75.0996L99.091 62.9382V57.2436L94.0903 48.08C94.8499 47.2718 95.2728 46.2044 95.2728 45.0953C95.2728 43.9861 94.8499 42.9187 94.0903 42.1105L99.091 32.9469V27.2524L92.4627 15.0999L99.091 2.93791V0.0909119H97.5376L90.9092 12.2439L84.2808 0.0909119H81.1739L75.8776 9.79991C75.0031 9.57991 74.088 9.57991 73.2136 9.79991L67.9172 0.0909119H64.8103L58.1819 12.2439L51.5536 0.0909119H48.4467L42.6059 10.7989C42.0852 10.7029 41.5514 10.7029 41.0307 10.7989L35.1899 0.0909119H32.083L25.4547 12.2439L18.8263 0.0909119H15.7194L10.423 9.79991C9.54858 9.57991 8.63342 9.57991 7.759 9.79991L2.46263 0.0909119H0.90918ZM2.46263 30.0909L7.759 20.3818C8.63342 20.6014 9.54858 20.6014 10.423 20.3818L15.7194 30.0909L9.091 42.2436L2.46263 30.0909ZM42.6081 19.3829L48.4467 30.0909L41.8183 42.2436L35.1899 30.0909L41.0307 19.3829C41.5514 19.4789 42.0852 19.4789 42.6059 19.3829H42.6081ZM75.8808 20.3807L81.1772 30.0898L74.5456 42.2436L67.9172 30.0909L73.2136 20.3818C74.088 20.6014 75.0031 20.6014 75.8776 20.3818L75.8808 20.3807ZM75.8808 80.3807L81.1772 90.0898L74.5456 102.244L67.9172 90.0909L73.2136 80.3818C74.088 80.6014 75.0031 80.6014 75.8776 80.3818L75.8808 80.3807ZM56.8499 99.8L51.5536 90.0909L58.1819 77.9382L64.8103 90.0909L59.5139 99.8C58.6395 99.5804 57.7243 99.5804 56.8499 99.8ZM24.1227 99.8L18.8263 90.0909L25.4547 77.9382L32.083 90.0909L26.7867 99.8C25.9122 99.5804 24.9971 99.5804 24.1227 99.8ZM26.7867 50.3818L32.083 60.0909L25.4547 72.2436L18.8263 60.0909L24.1227 50.3818C24.9971 50.6014 25.9122 50.6014 26.7867 50.3818ZM59.5139 50.3818L64.8103 60.0909L58.1819 72.2436L51.5536 60.0909L56.8499 50.3818C57.7243 50.6014 58.6395 50.6014 59.5139 50.3818ZM41.0307 70.7993L35.1899 60.0909L41.8183 47.9382L48.4467 60.0909L42.6059 70.7993C42.0852 70.7033 41.5514 70.7033 41.0307 70.7993ZM50.0001 62.9382L56.6285 75.0909L50.0001 87.2436L44.9994 78.08C45.759 77.2718 46.1819 76.2044 46.1819 75.0953C46.1819 73.9861 45.759 72.9187 44.9994 72.1105L50.0001 62.9382ZM50.0001 57.2436L43.3717 45.0909L50.0001 32.9382L54.4565 41.1091C53.9115 41.6193 53.4771 42.236 53.1801 42.9209C52.8831 43.6058 52.7298 44.3444 52.7298 45.0909C52.7298 45.8374 52.8831 46.576 53.1801 47.2609C53.4771 47.9458 53.9115 48.5625 54.4565 49.0727L50.0001 57.2436ZM33.6365 57.2436L29.1801 49.0727C29.7251 48.5625 30.1595 47.9458 30.4565 47.2609C30.7535 46.576 30.9068 45.8374 30.9068 45.0909C30.9068 44.3444 30.7535 43.6058 30.4565 42.9209C30.1595 42.236 29.7251 41.6193 29.1801 41.1091L33.6365 32.9382L40.2648 45.0909L33.6365 57.2436ZM33.6365 62.9382L38.6372 72.1018C37.8776 72.91 37.4547 73.9774 37.4547 75.0865C37.4547 76.1957 37.8776 77.2631 38.6372 78.0713L33.6365 87.2436L27.0081 75.0909L33.6365 62.9382ZM41.0307 79.3825C41.5514 79.4785 42.0852 79.4785 42.6059 79.3825L48.4467 90.0909L41.8183 102.244L35.1899 90.0909L41.0307 79.3825ZM66.3637 87.2436L59.7354 75.0909L66.3637 62.9382L70.8201 71.1091C70.2751 71.6193 69.8407 72.236 69.5437 72.9209C69.2467 73.6058 69.0935 74.3444 69.0935 75.0909C69.0935 75.8374 69.2467 76.576 69.5437 77.2609C69.8407 77.9458 70.2751 78.5625 70.8201 79.0727L66.3637 87.2436ZM73.2136 69.8L67.9172 60.0909L74.5456 47.9382L81.1739 60.0909L75.8776 69.8C75.0031 69.5804 74.088 69.5804 73.2136 69.8ZM66.3637 57.2436L61.9074 49.0727C62.4524 48.5625 62.8868 47.9458 63.1838 47.2609C63.4808 46.576 63.634 45.8374 63.634 45.0909C63.634 44.3444 63.4808 43.6058 63.1838 42.9209C62.8868 42.236 62.4524 41.6193 61.9074 41.1091L66.3637 32.9382L72.9921 45.0909L66.3637 57.2436ZM59.5139 39.8C58.6395 39.5804 57.7243 39.5804 56.8499 39.8L51.5536 30.0909L58.1819 17.9379L64.8103 30.0909L59.5139 39.8ZM26.7867 39.8C25.9122 39.5804 24.9971 39.5804 24.1227 39.8L18.8263 30.0909L25.4547 17.9379L32.083 30.0909L26.7867 39.8ZM17.2728 32.9382L21.7292 41.1091C21.1842 41.6193 20.7498 42.236 20.4528 42.9209C20.1558 43.6058 20.0025 44.3444 20.0025 45.0909C20.0025 45.8374 20.1558 46.576 20.4528 47.2609C20.7498 47.9458 21.1842 48.5625 21.7292 49.0727L17.2728 57.2436L10.6444 45.0909L17.2728 32.9382ZM7.759 69.8L2.46263 60.0909L9.091 47.9382L15.7194 60.0909L10.423 69.8C9.54858 69.5804 8.63342 69.5804 7.759 69.8ZM12.8165 79.0727C13.3614 78.5625 13.7959 77.9458 14.0929 77.2609C14.3899 76.576 14.5431 75.8374 14.5431 75.0909C14.5431 74.3444 14.3899 73.6058 14.0929 72.9209C13.7959 72.236 13.3614 71.6193 12.8165 71.1091L17.2728 62.9382L23.9012 75.0909L17.2728 87.2436L12.8165 79.0727ZM2.46263 90.0909L7.759 80.3818C8.63342 80.6014 9.54858 80.6014 10.423 80.3818L15.7194 90.0909L9.091 102.244L2.46263 90.0909ZM17.2728 117.244L10.6444 105.091L17.2728 92.9382L21.7292 101.109C21.1842 101.619 20.7498 102.236 20.4528 102.921C20.1558 103.606 20.0025 104.344 20.0025 105.091C20.0025 105.837 20.1558 106.576 20.4528 107.261C20.7498 107.946 21.1842 108.563 21.7292 109.073L17.2728 117.244ZM33.6365 117.244L29.1801 109.073C29.7251 108.563 30.1595 107.946 30.4565 107.261C30.7535 106.576 30.9068 105.837 30.9068 105.091C30.9068 104.344 30.7535 103.606 30.4565 102.921C30.1595 102.236 29.7251 101.619 29.1801 101.109L33.6365 92.9382L40.2648 105.091L33.6365 117.244ZM50.0001 117.244L43.3717 105.091L50.0001 92.9382L54.4565 101.109C53.9115 101.619 53.4771 102.236 53.1801 102.921C52.8831 103.606 52.7298 104.344 52.7298 105.091C52.7298 105.837 52.8831 106.576 53.1801 107.261C53.4771 107.946 53.9115 108.563 54.4565 109.073L50.0001 117.244ZM66.3637 117.244L61.9074 109.073C62.4524 108.563 62.8868 107.946 63.1838 107.261C63.4808 106.576 63.634 105.837 63.634 105.091C63.634 104.344 63.4808 103.606 63.1838 102.921C62.8868 102.236 62.4524 101.619 61.9074 101.109L66.3637 92.9382L72.9921 105.091L66.3637 117.244ZM86.5456 105.091C86.544 106.2 86.9672 107.268 87.7281 108.076L82.7274 117.244L76.099 105.091L82.7274 92.9382L87.7281 102.102C86.9661 102.91 86.5429 103.98 86.5456 105.091ZM97.5376 90.0909L91.6968 100.799C91.1761 100.703 90.6423 100.703 90.1216 100.799L84.2808 90.0909L90.9092 77.9382L97.5376 90.0909ZM82.7274 87.2436L78.271 79.0727C78.816 78.5625 79.2504 77.9458 79.5474 77.2609C79.8444 76.576 79.9977 75.8374 79.9977 75.0909C79.9977 74.3444 79.8444 73.6058 79.5474 72.9209C79.2504 72.236 78.816 71.6193 78.271 71.1091L82.7274 62.9382L89.3557 75.0909L82.7274 87.2436ZM91.6968 49.3825L97.5376 60.0909L90.9092 72.2436L84.2808 60.0909L90.1216 49.3825C90.6423 49.4785 91.1761 49.4785 91.6968 49.3825ZM86.5456 45.0909C86.544 46.2003 86.9672 47.2683 87.7281 48.0756L82.7274 57.2436L76.099 45.0909L82.7274 32.9382L87.7281 42.1018C86.9661 42.9102 86.5429 43.98 86.5456 45.0909ZM97.5376 30.0909L91.6968 40.7993C91.1761 40.7033 90.6423 40.7033 90.1216 40.7993L84.2808 30.0909L90.9092 17.9379L97.5376 30.0909ZM82.7274 2.93791L89.3557 15.0909L82.7274 27.2436L78.271 19.0729C78.816 18.5629 79.2504 17.9459 79.5474 17.2609C79.8444 16.5759 79.9977 15.8379 79.9977 15.0909C79.9977 14.3439 79.8444 13.6059 79.5474 12.9209C79.2504 12.2359 78.816 11.6189 78.271 11.1089L82.7274 2.93791ZM66.3637 2.93791L70.8201 11.1089C70.2751 11.6189 69.8407 12.2359 69.5437 12.9209C69.2467 13.6059 69.0935 14.3439 69.0935 15.0909C69.0935 15.8379 69.2467 16.5759 69.5437 17.2609C69.8407 17.9459 70.2751 18.5629 70.8201 19.0729L66.3637 27.2436L59.7354 15.0909L66.3637 2.93791ZM50.0001 2.93791L56.6285 15.0909L50.0001 27.2436L44.9994 18.0799C45.759 17.2719 46.1819 16.2039 46.1819 15.0949C46.1819 13.9859 45.759 12.9189 44.9994 12.1109L50.0001 2.93791ZM33.6365 2.93791L38.6372 12.1019C37.8776 12.9099 37.4547 13.9779 37.4547 15.0869C37.4547 16.1959 37.8776 17.2629 38.6372 18.0709L33.6365 27.2436L27.0081 15.0909L33.6365 2.93791ZM17.2728 2.93791L23.9012 15.0909L17.2728 27.2436L12.8165 19.0729C13.3614 18.5629 13.7959 17.9459 14.0929 17.2609C14.3899 16.5759 14.5431 15.8379 14.5431 15.0909C14.5431 14.3439 14.3899 13.6059 14.0929 12.9209C13.7959 12.2359 13.3614 11.6189 12.8165 11.1089L17.2728 2.93791Z" fill="#917EFC"/>
</svg>
