<svg width="120" height="99" viewBox="0 0 120 99" fill="none" xmlns="http://www.w3.org/2000/svg">
<path d="M120 0H117.153L108.982 4.45636C108.472 3.91139 107.855 3.47696 107.17 3.17996C106.485 2.88296 105.747 2.72971 105 2.72971C104.253 2.72971 103.515 2.88296 102.83 3.17996C102.145 3.47696 101.528 3.91139 101.018 4.45636L92.8473 0H87.1527L75 6.62836L62.8473 0H57.1527L48.9818 4.45636C48.4716 3.91139 47.8549 3.47696 47.17 3.17996C46.4851 2.88296 45.7465 2.72971 45 2.72971C44.2535 2.72971 43.5149 2.88296 42.83 3.17996C42.1451 3.47696 41.5284 3.91139 41.0182 4.45636L32.8473 0H27.1527L15 6.62836L2.84727 0H0V1.55345L12.1527 8.18182L0 14.8102V17.9171L9.70909 23.2135C9.48945 24.0879 9.48945 25.003 9.70909 25.8775L0 31.1738V34.2807L12.1527 40.9091L0 47.5375V50.6444L9.70909 55.9407C9.48945 56.8151 9.48945 57.7303 9.70909 58.6047L0 63.9011V67.008L12.1527 73.6364L0 80.2647V83.3716L10.7084 89.2124C10.6124 89.7331 10.6124 90.2669 10.7084 90.7876L0 96.6284V98.1818H2.84727L12.0109 93.1811C12.8191 93.9407 13.8865 94.3636 14.9956 94.3636C16.1048 94.3636 17.1722 93.9407 17.9804 93.1811L27.144 98.1818H32.8385L44.9913 91.5535L57.1527 98.1818H62.8473L72.0109 93.1811C72.8191 93.9407 73.8865 94.3636 74.9956 94.3636C76.1048 94.3636 77.1722 93.9407 77.9804 93.1811L87.144 98.1818H92.8385L104.991 91.5535L117.153 98.1818H120V96.6284L107.847 90L120 83.3716V80.2647L110.291 74.9684C110.511 74.0939 110.511 73.1788 110.291 72.3044L120 67.008V63.9011L107.847 57.2727L120 50.6444V47.5375L109.292 41.6967C109.388 41.176 109.388 40.6422 109.292 40.1215L120 34.2807V31.1738L107.847 24.5455L120 17.9171V14.8102L110.291 9.51382C110.511 8.6394 110.511 7.72424 110.291 6.84982L120 1.55345V0ZM90 1.55345L99.7091 6.84982C99.4895 7.72424 99.4895 8.6394 99.7091 9.51382L90 14.8102L77.8473 8.18182L90 1.55345ZM100.708 41.6989L90 47.5375L77.8473 40.9091L90 34.2807L100.708 40.1215C100.612 40.6422 100.612 41.176 100.708 41.6967V41.6989ZM99.7102 74.9716L90.0011 80.268L77.8473 73.6364L90 67.008L99.7091 72.3044C99.4895 73.1788 99.4895 74.0939 99.7091 74.9684L99.7102 74.9716ZM39.7102 74.9716L30.0011 80.268L17.8473 73.6364L30 67.008L39.7091 72.3044C39.4895 73.1788 39.4895 74.0939 39.7091 74.9684L39.7102 74.9716ZM20.2909 55.9407L30 50.6444L42.1527 57.2727L30 63.9011L20.2909 58.6047C20.5105 57.7303 20.5105 56.8151 20.2909 55.9407V55.9407ZM20.2909 23.2135L30 17.9171L42.1527 24.5455L30 31.1738L20.2909 25.8775C20.5105 25.003 20.5105 24.0879 20.2909 23.2135V23.2135ZM69.7091 25.8775L60 31.1738L47.8473 24.5455L60 17.9171L69.7091 23.2135C69.4895 24.0879 69.4895 25.003 69.7091 25.8775V25.8775ZM69.7091 58.6047L60 63.9011L47.8473 57.2727L60 50.6444L69.7091 55.9407C69.4895 56.8151 69.4895 57.7303 69.7091 58.6047V58.6047ZM49.2916 40.1215L60 34.2807L72.1527 40.9091L60 47.5375L49.2916 41.6967C49.3876 41.176 49.3876 40.6422 49.2916 40.1215V40.1215ZM57.1527 49.0909L45 55.7193L32.8473 49.0909L42.0109 44.0902C42.8191 44.8498 43.8865 45.2727 44.9956 45.2727C46.1048 45.2727 47.1722 44.8498 47.9804 44.0902L57.1527 49.0909ZM62.8473 49.0909L75 42.4625L87.1527 49.0909L78.9818 53.5473C78.4716 53.0023 77.8549 52.5679 77.17 52.2709C76.4851 51.9739 75.7465 51.8206 75 51.8206C74.2535 51.8206 73.5149 51.9739 72.83 52.2709C72.1451 52.5679 71.5284 53.0023 71.0182 53.5473L62.8473 49.0909ZM62.8473 32.7273L71.0182 28.2709C71.5284 28.8159 72.1451 29.2503 72.83 29.5473C73.5149 29.8443 74.2535 29.9976 75 29.9976C75.7465 29.9976 76.4851 29.8443 77.17 29.5473C77.8549 29.2503 78.4716 28.8159 78.9818 28.2709L87.1527 32.7273L75 39.3556L62.8473 32.7273ZM57.1527 32.7273L47.9891 37.728C47.1809 36.9684 46.1135 36.5455 45.0044 36.5455C43.8952 36.5455 42.8278 36.9684 42.0196 37.728L32.8473 32.7273L45 26.0989L57.1527 32.7273ZM40.7084 40.1215C40.6124 40.6422 40.6124 41.176 40.7084 41.6967L30 47.5375L17.8473 40.9091L30 34.2807L40.7084 40.1215ZM32.8473 65.4545L45 58.8262L57.1527 65.4545L48.9818 69.9109C48.4716 69.3659 47.8549 68.9315 47.17 68.6345C46.4851 68.3375 45.7465 68.1843 45 68.1843C44.2535 68.1843 43.5149 68.3375 42.83 68.6345C42.1451 68.9315 41.5284 69.3659 41.0182 69.9109L32.8473 65.4545ZM50.2909 72.3044L60 67.008L72.1527 73.6364L60 80.2647L50.2909 74.9684C50.5105 74.0939 50.5105 73.1788 50.2909 72.3044V72.3044ZM62.8473 65.4545L71.0182 60.9982C71.5284 61.5432 72.1451 61.9776 72.83 62.2746C73.5149 62.5716 74.2535 62.7248 75 62.7248C75.7465 62.7248 76.4851 62.5716 77.17 62.2746C77.8549 61.9776 78.4716 61.5432 78.9818 60.9982L87.1527 65.4545L75 72.0829L62.8473 65.4545ZM80.2909 58.6047C80.5105 57.7303 80.5105 56.8151 80.2909 55.9407L90 50.6444L102.153 57.2727L90 63.9011L80.2909 58.6047ZM80.2909 25.8775C80.5105 25.003 80.5105 24.0879 80.2909 23.2135L90 17.9171L102.153 24.5455L90 31.1738L80.2909 25.8775ZM87.1527 16.3636L78.9818 20.82C78.4716 20.275 77.8549 19.8406 77.17 19.5436C76.4851 19.2466 75.7465 19.0933 75 19.0933C74.2535 19.0933 73.5149 19.2466 72.83 19.5436C72.1451 19.8406 71.5284 20.275 71.0182 20.82L62.8473 16.3636L75 9.73527L87.1527 16.3636ZM50.2909 6.84982L60 1.55345L72.1527 8.18182L60 14.8102L50.2909 9.51382C50.5105 8.6394 50.5105 7.72424 50.2909 6.84982V6.84982ZM41.0182 11.9073C41.5284 12.4522 42.1451 12.8867 42.83 13.1837C43.5149 13.4807 44.2535 13.6339 45 13.6339C45.7465 13.6339 46.4851 13.4807 47.17 13.1837C47.8549 12.8867 48.4716 12.4522 48.9818 11.9073L57.1527 16.3636L45 22.992L32.8473 16.3636L41.0182 11.9073ZM30 1.55345L39.7091 6.84982C39.4895 7.72424 39.4895 8.6394 39.7091 9.51382L30 14.8102L17.8473 8.18182L30 1.55345ZM2.84727 16.3636L15 9.73527L27.1527 16.3636L18.9818 20.82C18.4716 20.275 17.8549 19.8406 17.17 19.5436C16.4851 19.2466 15.7465 19.0933 15 19.0933C14.2535 19.0933 13.5149 19.2466 12.83 19.5436C12.1451 19.8406 11.5284 20.275 11.0182 20.82L2.84727 16.3636ZM2.84727 32.7273L11.0182 28.2709C11.5284 28.8159 12.1451 29.2503 12.83 29.5473C13.5149 29.8443 14.2535 29.9976 15 29.9976C15.7465 29.9976 16.4851 29.8443 17.17 29.5473C17.8549 29.2503 18.4716 28.8159 18.9818 28.2709L27.1527 32.7273L15 39.3556L2.84727 32.7273ZM2.84727 49.0909L15 42.4625L27.1527 49.0909L18.9818 53.5473C18.4716 53.0023 17.8549 52.5679 17.17 52.2709C16.4851 51.9739 15.7465 51.8206 15 51.8206C14.2535 51.8206 13.5149 51.9739 12.83 52.2709C12.1451 52.5679 11.5284 53.0023 11.0182 53.5473L2.84727 49.0909ZM2.84727 65.4545L11.0182 60.9982C11.5284 61.5432 12.1451 61.9776 12.83 62.2746C13.5149 62.5716 14.2535 62.7248 15 62.7248C15.7465 62.7248 16.4851 62.5716 17.17 62.2746C17.8549 61.9776 18.4716 61.5432 18.9818 60.9982L27.1527 65.4545L15 72.0829L2.84727 65.4545ZM15 85.6364C13.8906 85.6348 12.8226 86.058 12.0153 86.8189L2.84727 81.8182L15 75.1898L27.1527 81.8182L17.9891 86.8189C17.1807 86.0569 16.1109 85.6337 15 85.6364V85.6364ZM30 96.6284L19.2916 90.7876C19.3876 90.2669 19.3876 89.7331 19.2916 89.2124L30 83.3716L42.1527 90L30 96.6284ZM32.8473 81.8182L41.0182 77.3618C41.5284 77.9068 42.1451 78.3412 42.83 78.6382C43.5149 78.9352 44.2535 79.0885 45 79.0885C45.7465 79.0885 46.4851 78.9352 47.17 78.6382C47.8549 78.3412 48.4716 77.9068 48.9818 77.3618L57.1527 81.8182L45 88.4465L32.8473 81.8182ZM70.7084 90.7876L60 96.6284L47.8473 90L60 83.3716L70.7084 89.2124C70.6124 89.7331 70.6124 90.2669 70.7084 90.7876V90.7876ZM75 85.6364C73.8906 85.6348 72.8226 86.058 72.0153 86.8189L62.8473 81.8182L75 75.1898L87.1527 81.8182L77.9891 86.8189C77.1807 86.0569 76.1109 85.6337 75 85.6364V85.6364ZM90 96.6284L79.2916 90.7876C79.3876 90.2669 79.3876 89.7331 79.2916 89.2124L90 83.3716L102.153 90L90 96.6284ZM117.153 81.8182L105 88.4465L92.8473 81.8182L101.018 77.3618C101.528 77.9068 102.145 78.3412 102.83 78.6382C103.515 78.9352 104.253 79.0885 105 79.0885C105.747 79.0885 106.485 78.9352 107.17 78.6382C107.855 78.3412 108.472 77.9068 108.982 77.3618L117.153 81.8182ZM117.153 65.4545L108.982 69.9109C108.472 69.3659 107.855 68.9315 107.17 68.6345C106.485 68.3375 105.747 68.1843 105 68.1843C104.253 68.1843 103.515 68.3375 102.83 68.6345C102.145 68.9315 101.528 69.3659 101.018 69.9109L92.8473 65.4545L105 58.8262L117.153 65.4545ZM117.153 49.0909L105 55.7193L92.8473 49.0909L102.011 44.0902C102.819 44.8498 103.887 45.2727 104.996 45.2727C106.105 45.2727 107.172 44.8498 107.98 44.0902L117.153 49.0909ZM117.153 32.7273L107.989 37.728C107.181 36.9684 106.113 36.5455 105.004 36.5455C103.895 36.5455 102.828 36.9684 102.02 37.728L92.8473 32.7273L105 26.0989L117.153 32.7273ZM117.153 16.3636L105 22.992L92.8473 16.3636L101.018 11.9073C101.528 12.4522 102.145 12.8867 102.83 13.1837C103.515 13.4807 104.253 13.6339 105 13.6339C105.747 13.6339 106.485 13.4807 107.17 13.1837C107.855 12.8867 108.472 12.4522 108.982 11.9073L117.153 16.3636Z" fill="#917EFC"/>
</svg>
