<svg width="48" height="48" viewBox="0 0 48 48" fill="none" xmlns="http://www.w3.org/2000/svg">
<path d="M46.8167 36.9241L44.9393 35.8401C45.0833 34.8336 45.0833 33.8118 44.9393 32.8054L46.8167 31.7214C47.1304 31.5401 47.3594 31.2417 47.4534 30.8918C47.5474 30.5418 47.4987 30.1688 47.318 29.8547L44.582 25.1161C44.4005 24.8025 44.102 24.5738 43.7521 24.4801C43.4021 24.3863 43.0293 24.4352 42.7153 24.6161L40.8367 25.7001C40.0359 25.0739 39.1519 24.5623 38.21 24.1801V22.0134C38.21 21.6506 38.0659 21.3026 37.8093 21.0461C37.5528 20.7895 37.2048 20.6454 36.842 20.6454H31.3753C31.1953 20.6449 31.017 20.6799 30.8506 20.7484C30.6842 20.8169 30.5329 20.9176 30.4054 21.0447C30.278 21.1717 30.1768 21.3227 30.1078 21.489C30.0388 21.6552 30.0033 21.8334 30.0033 22.0134V24.1787C29.0615 24.561 28.1774 25.0726 27.3767 25.6987L25.498 24.6147C25.1841 24.4339 24.8112 24.385 24.4613 24.4787C24.1113 24.5725 23.8128 24.8012 23.6313 25.1147L20.894 29.8534C20.7132 30.1673 20.6643 30.5402 20.758 30.8901C20.8517 31.2401 21.0805 31.5385 21.394 31.7201L23.2713 32.8001C23.1291 33.8066 23.1291 34.8282 23.2713 35.8347L21.394 36.9187C21.0805 37.1002 20.8517 37.3987 20.758 37.7487C20.6643 38.0986 20.7132 38.4715 20.894 38.7854L23.63 43.5241C23.8115 43.8376 24.11 44.0663 24.4599 44.16C24.8099 44.2538 25.1827 44.2049 25.4967 44.0241L27.3753 42.9401C28.1761 43.5662 29.0601 44.0778 30.002 44.4601V46.6254C30.0011 46.8057 30.0359 46.9844 30.1043 47.1513C30.1728 47.3181 30.2735 47.4697 30.4008 47.5975C30.528 47.7253 30.6793 47.8266 30.8459 47.8957C31.0124 47.9648 31.191 48.0002 31.3713 48.0001H36.838C37.2008 48.0001 37.5488 47.8559 37.8053 47.5994C38.0619 47.3428 38.206 46.9949 38.206 46.6321V44.4667C39.1479 44.0844 40.0319 43.5729 40.8327 42.9467L42.7113 44.0307C43.0253 44.2115 43.3981 44.2604 43.7481 44.1667C44.098 44.073 44.3965 43.8443 44.578 43.5307L47.314 38.7921C47.4955 38.4783 47.545 38.1054 47.4518 37.7552C47.3585 37.4049 47.1301 37.106 46.8167 36.9241V36.9241ZM34.1047 38.4254C33.2933 38.4251 32.5002 38.1843 31.8257 37.7333C31.1512 37.2824 30.6256 36.6415 30.3152 35.8918C30.0049 35.1421 29.9239 34.3173 30.0823 33.5215C30.2408 32.7258 30.6316 31.9949 31.2054 31.4212C31.7793 30.8476 32.5103 30.457 33.3061 30.2988C34.1019 30.1406 34.9267 30.2219 35.6763 30.5325C36.4259 30.843 37.0666 31.3689 37.5173 32.0435C37.9681 32.7182 38.2087 33.5114 38.2087 34.3227C38.2087 35.4108 37.7764 36.4544 37.007 37.2237C36.2376 37.9931 35.1941 38.4254 34.106 38.4254H34.1047Z" fill="#132937"/>
<path d="M20.7116 35.74L21.8222 35.0973C21.8062 34.8307 21.7969 34.5787 21.7969 34.3227C21.7969 34.0667 21.8062 33.808 21.8222 33.548L20.7116 32.9053C20.0846 32.5423 19.6271 31.9454 19.4394 31.2456C19.2517 30.5458 19.3491 29.8001 19.7102 29.172L22.4449 24.4333C22.8077 23.8061 23.4046 23.3483 24.1045 23.1606C24.8044 22.9729 25.5502 23.0705 26.1782 23.432L27.2902 24.0747C27.7208 23.7883 28.1687 23.5292 28.6316 23.2987V22.0133C28.6326 21.288 28.9212 20.5927 29.4341 20.0799C29.947 19.567 30.6423 19.2784 31.3676 19.2773H31.9516C31.9942 18.828 32.0182 18.372 32.0182 17.9093C32.0198 17.2444 31.9752 16.5801 31.8849 15.9213L34.7076 14.292C35.0213 14.1107 35.2503 13.8123 35.3443 13.4624C35.4383 13.1124 35.3896 12.7394 35.2089 12.4253L31.2089 5.492C31.0274 5.17852 30.729 4.94974 30.3791 4.85578C30.0293 4.76182 29.6564 4.81032 29.3422 4.99067L26.5102 6.616C25.461 5.79494 24.3023 5.12446 23.0676 4.624V1.368C23.0676 1.00518 22.9234 0.657227 22.6669 0.400678C22.4103 0.144128 22.0624 0 21.6996 0H13.6889C13.3261 0 12.9781 0.144128 12.7216 0.400678C12.465 0.657227 12.3209 1.00518 12.3209 1.368V4.624C11.0859 5.12475 9.92677 5.7952 8.87691 6.616L6.05424 4.98533C5.74014 4.80463 5.36718 4.75593 5.01722 4.84992C4.66725 4.94391 4.36887 5.17291 4.18757 5.48667L0.187573 12.42C0.00686712 12.7341 -0.041835 13.1071 0.052156 13.457C0.146147 13.807 0.375152 14.1054 0.688906 14.2867L3.51024 15.916C3.32712 17.2355 3.32712 18.5739 3.51024 19.8933L0.683573 21.528C0.369818 21.7093 0.140814 22.0077 0.0468226 22.3576C-0.0471685 22.7076 0.00153367 23.0806 0.182239 23.3947L4.18224 30.328C4.36354 30.6418 4.66191 30.8708 5.01188 30.9648C5.36185 31.0587 5.73481 31.01 6.04891 30.8293L8.87691 29.2C9.92594 30.0241 11.0852 30.6973 12.3209 31.2V34.4573C12.3209 34.8202 12.465 35.1681 12.7216 35.4247C12.9781 35.6812 13.3261 35.8253 13.6889 35.8253H20.5862C20.6276 35.7933 20.6676 35.764 20.7116 35.74ZM12.3209 17.9093C12.3209 16.8466 12.636 15.8077 13.2265 14.9241C13.8169 14.0404 14.6561 13.3517 15.638 12.945C16.6198 12.5383 17.7002 12.4319 18.7425 12.6392C19.7849 12.8466 20.7423 13.3583 21.4938 14.1098C22.2452 14.8613 22.757 15.8187 22.9643 16.861C23.1717 17.9034 23.0652 18.9838 22.6586 19.9656C22.2519 20.9475 21.5631 21.7867 20.6795 22.3771C19.7959 22.9675 18.757 23.2827 17.6942 23.2827C16.9886 23.2828 16.2897 23.144 15.6377 22.874C14.9857 22.604 14.3933 22.2082 13.8943 21.7092C13.3953 21.2103 12.9995 20.6178 12.7296 19.9658C12.4596 19.3138 12.3207 18.615 12.3209 17.9093V17.9093Z" fill="#132937"/>
</svg>
