<svg width="347" height="348" viewBox="0 0 347 348" fill="none" xmlns="http://www.w3.org/2000/svg">
<path d="M37.7602 134.596H33.7975C33.6563 134.597 33.5177 134.634 33.3946 134.703C33.2715 134.772 33.168 134.871 33.0938 134.991C33.0195 135.111 32.977 135.248 32.9702 135.389C32.9634 135.53 32.9925 135.67 33.0549 135.797L33.8877 137.463C33.9557 137.601 34.0615 137.718 34.1929 137.799C34.3243 137.88 34.4759 137.922 34.6303 137.921H36.9274C37.0816 137.921 37.2329 137.879 37.3642 137.798C37.4954 137.717 37.6014 137.601 37.67 137.463L38.5028 135.797C38.5652 135.67 38.5943 135.53 38.5875 135.389C38.5807 135.248 38.5382 135.111 38.4639 134.991C38.3897 134.871 38.2862 134.772 38.1631 134.703C38.04 134.634 37.9014 134.597 37.7602 134.596Z" fill="#426DA9"/>
<path d="M34.1175 138.754L33.2847 147.901L35.7762 151.225L38.2746 147.901L37.4418 138.754H34.1175Z" fill="#426DA9"/>
<path d="M304.704 196.502C303.717 196.502 302.752 196.795 301.932 197.343C301.111 197.891 300.471 198.671 300.094 199.582C299.716 200.494 299.617 201.497 299.81 202.465C300.002 203.433 300.478 204.322 301.175 205.02C301.873 205.718 302.762 206.193 303.73 206.386C304.698 206.578 305.702 206.48 306.613 206.102C307.525 205.724 308.304 205.085 308.853 204.264C309.401 203.444 309.694 202.479 309.694 201.492C309.695 200.836 309.566 200.187 309.316 199.581C309.065 198.975 308.698 198.425 308.234 197.961C307.771 197.498 307.22 197.13 306.614 196.88C306.009 196.629 305.359 196.501 304.704 196.502Z" fill="#426DA9"/>
<path d="M146.907 59.6438C149.468 59.6438 151.543 57.5682 151.543 55.0078C151.543 52.4474 149.468 50.3718 146.907 50.3718C144.347 50.3718 142.271 52.4474 142.271 55.0078C142.271 57.5682 144.347 59.6438 146.907 59.6438Z" fill="#426DA9"/>
<path d="M134.436 36.4709C134.437 35.2695 134.082 34.0948 133.416 33.0952C132.749 32.0957 131.801 31.3163 130.692 30.8556C129.582 30.3949 128.361 30.2737 127.183 30.5072C126.004 30.7407 124.922 31.3185 124.072 32.1675C123.222 33.0165 122.643 34.0985 122.408 35.2767C122.173 36.4548 122.293 37.6762 122.752 38.7862C123.212 39.8962 123.99 40.845 124.989 41.5126C125.987 42.1802 127.162 42.5365 128.363 42.5365C129.972 42.5365 131.516 41.8977 132.655 40.7603C133.793 39.623 134.434 38.0802 134.436 36.4709Z" fill="#426DA9"/>
<path d="M334.31 181.164C326.184 173.043 315.165 168.48 303.676 168.48C292.187 168.48 281.169 173.043 273.043 181.164C271.878 182.345 270.78 183.589 269.753 184.891L227.627 172.517C227.482 164.141 225.392 155.913 221.52 148.484L256.151 113.846C265.408 117.769 275.741 118.35 285.379 115.49C295.017 112.63 303.361 106.506 308.979 98.1685C314.597 89.8311 317.141 79.7991 316.174 69.792C315.206 59.7849 310.788 50.4258 303.677 43.3188C296.566 36.2119 287.204 31.7997 277.196 30.8384C267.189 29.8772 257.158 32.4268 248.824 38.0502C240.49 43.6736 234.372 52.0207 231.517 61.6607C228.663 71.3008 229.25 81.6335 233.179 90.8879L198.548 125.526C191.119 121.654 182.891 119.563 174.515 119.419L162.113 77.2715C163.415 76.245 164.659 75.1468 165.84 73.9819C172.8 67.0194 177.182 57.8947 178.265 48.1097C179.348 38.3247 177.068 28.4624 171.799 20.1461C166.531 11.8298 158.588 5.55494 149.278 2.35436C139.968 -0.846231 129.846 -0.78185 120.577 2.5369C111.309 5.85565 103.446 12.231 98.2837 20.6137C93.1212 28.9963 90.9665 38.8868 92.1742 48.6572C93.3818 58.4277 97.8798 67.4959 104.928 74.3693C111.976 81.2428 121.154 85.5119 130.952 86.474L143.333 128.579C137.481 132.507 132.45 137.537 128.523 143.39L86.4174 130.988C85.453 121.198 81.1847 112.028 74.3148 104.986C67.4449 97.9452 58.3828 93.4523 48.6196 92.2471C38.8563 91.0419 28.9736 93.1961 20.5977 98.3552C12.2217 103.514 5.85152 111.371 2.53528 120.633C-0.780969 129.894 -0.845685 140.009 2.35178 149.312C5.54924 158.615 11.8184 166.553 20.1276 171.819C28.4369 177.085 38.2912 179.365 48.0691 178.285C57.8469 177.205 66.9658 172.828 73.9252 165.875C75.0901 164.695 76.1883 163.451 77.2148 162.149L119.362 174.544C119.622 188.55 125.302 201.911 135.208 211.817C145.114 221.723 158.474 227.403 172.481 227.663L184.876 269.789C183.572 270.818 182.325 271.919 181.142 273.086C174.182 280.048 169.8 289.173 168.717 298.958C167.634 308.743 169.914 318.605 175.182 326.921C180.451 335.238 188.394 341.513 197.704 344.713C207.014 347.914 217.136 347.849 226.405 344.531C235.673 341.212 243.536 334.837 248.698 326.454C253.861 318.071 256.015 308.181 254.808 298.41C253.6 288.64 249.102 279.572 242.054 272.698C235.006 265.825 225.828 261.556 216.03 260.594L203.656 218.502C209.508 214.575 214.539 209.544 218.466 203.692L260.572 216.073C261.257 222.982 263.592 229.625 267.382 235.443C271.172 241.261 276.304 246.082 282.347 249.501C288.39 252.92 295.166 254.837 302.105 255.09C309.043 255.342 315.941 253.923 322.216 250.952C328.491 247.981 333.961 243.546 338.163 238.019C342.366 232.492 345.178 226.036 346.364 219.195C347.549 212.354 347.073 205.328 344.975 198.71C342.878 192.091 339.22 186.074 334.31 181.164ZM291.406 48.4494C293.804 48.464 296.133 49.2543 298.044 50.7022C299.955 52.1502 301.347 54.1779 302.01 56.4822C302.673 58.7865 302.572 61.2436 301.723 63.486C300.874 65.7284 299.322 67.6357 297.298 68.9226C300.453 70.1221 303.169 72.2515 305.086 75.0288C307.003 77.8062 308.031 81.1004 308.035 84.4753V87.2513C308.035 87.9876 307.742 88.6936 307.222 89.2143C306.701 89.7349 305.995 90.0273 305.259 90.0273H293.28C292.856 87.1556 291.763 84.4239 290.088 82.0532C288.594 79.9223 286.672 78.126 284.445 76.7787C285.14 76.0345 285.744 75.2097 286.243 74.322C287.108 72.7822 287.654 71.0844 287.85 69.3293C288.046 67.5742 287.888 65.7977 287.384 64.105C286.881 62.4123 286.042 60.8381 284.919 59.4756C283.795 58.1132 282.409 56.9903 280.843 56.1737C281.559 53.9335 282.968 51.9785 284.866 50.5903C286.764 49.2021 289.055 48.4524 291.406 48.4494ZM274.75 56.7775C277.148 56.792 279.477 57.5824 281.388 59.0303C283.299 60.4783 284.69 62.506 285.354 64.8103C286.017 67.1146 285.916 69.5717 285.067 71.8141C284.218 74.0565 282.665 75.9637 280.642 77.2507C283.797 78.4501 286.512 80.5796 288.43 83.3569C290.347 86.1343 291.375 89.4285 291.379 92.8034V95.5794C291.379 96.3156 291.086 97.0217 290.565 97.5423C290.045 98.063 289.339 98.3554 288.602 98.3554H260.939C260.203 98.3554 259.497 98.063 258.976 97.5423C258.456 97.0217 258.163 96.3156 258.163 95.5794V92.8034C258.167 89.4285 259.195 86.1343 261.112 83.3569C263.029 80.5796 265.745 78.4501 268.9 77.2507C266.876 75.9637 265.324 74.0565 264.475 71.8141C263.626 69.5717 263.525 67.1146 264.188 64.8103C264.852 62.506 266.243 60.4783 268.154 59.0303C270.065 57.5824 272.394 56.792 274.792 56.7775H274.75ZM241.507 84.4753C241.51 81.1004 242.539 77.8062 244.456 75.0288C246.373 72.2515 249.089 70.1221 252.243 68.9226C250.722 67.9774 249.452 66.6782 248.541 65.1358C247.631 63.5935 247.107 61.8537 247.014 60.065C246.921 58.2764 247.263 56.4918 248.009 54.8636C248.756 53.2354 249.885 51.8119 251.3 50.7146C252.716 49.6172 254.376 48.8786 256.139 48.5617C257.901 48.2448 259.715 48.359 261.424 48.8946C263.133 49.4302 264.687 50.3713 265.954 51.6376C267.221 52.9039 268.162 54.4578 268.698 56.1667C267.137 56.9847 265.756 58.1073 264.637 59.4682C263.517 60.829 262.681 62.4005 262.179 64.0898C261.677 65.779 261.519 67.5518 261.714 69.3033C261.908 71.0548 262.452 72.7495 263.313 74.2873C263.812 75.1733 264.413 75.9978 265.103 76.744C262.879 78.0921 260.96 79.8883 259.468 82.0185C257.793 84.3892 256.699 87.1209 256.276 89.9926H244.283C243.547 89.9926 242.841 89.7002 242.32 89.1796C241.8 88.6589 241.507 87.9529 241.507 87.2166V84.4753ZM19.1542 156.215C18.2719 156.215 17.4256 155.865 16.8011 155.242C16.1766 154.618 15.8248 153.773 15.8229 152.891V149.559C15.8249 145.51 17.0579 141.556 19.3583 138.223C21.6588 134.89 24.9179 132.336 28.7037 130.897C26.2586 129.363 24.3789 127.075 23.3483 124.378C22.3177 121.682 22.1921 118.723 22.9905 115.949C23.7888 113.175 25.4679 110.736 27.7742 109C30.0805 107.263 32.8889 106.324 35.7756 106.324C38.6624 106.324 41.4708 107.263 43.7771 109C46.0834 110.736 47.7624 113.175 48.5608 115.949C49.3592 118.723 49.2336 121.682 48.203 124.378C47.1724 127.075 45.2927 129.363 42.8476 130.897C44.7204 131.608 46.4752 132.598 48.0526 133.833C47.6344 134.574 47.4145 135.411 47.4141 136.262V152.918C47.4165 154.146 47.8711 155.329 48.6911 156.243L19.1542 156.215ZM72.3568 152.891C72.3568 153.327 72.2708 153.759 72.1037 154.163C71.9367 154.566 71.6918 154.932 71.3831 155.241C71.0744 155.55 70.7079 155.795 70.3046 155.962C69.9013 156.129 69.469 156.215 69.0325 156.215H52.3763C51.4952 156.213 50.6507 155.862 50.0277 155.239C49.4047 154.616 49.0538 153.772 49.052 152.891V136.234C49.052 135.353 49.4022 134.507 50.0257 133.884C50.6491 133.26 51.4946 132.91 52.3763 132.91H57.3662V142.883L60.6905 139.559L64.0148 142.883V132.938H69.0047C69.4415 132.937 69.8742 133.022 70.2779 133.189C70.6817 133.356 71.0485 133.601 71.3574 133.909C71.6663 134.218 71.9111 134.585 72.0778 134.989C72.2446 135.393 72.3299 135.825 72.329 136.262L72.3568 152.891ZM131.632 56.7011H123.838C123.635 56.7011 123.434 56.661 123.247 56.5832C123.06 56.5053 122.889 56.3912 122.746 56.2474C122.603 56.1036 122.49 55.9329 122.413 55.7452C122.336 55.5575 122.297 55.3564 122.298 55.1535V51.4752C120.902 50.909 119.592 50.1523 118.404 49.2267L115.198 51.0658C114.846 51.2631 114.431 51.3148 114.042 51.2097C113.653 51.1046 113.32 50.8511 113.116 50.5036L108.591 42.6683C108.394 42.3167 108.342 41.9018 108.447 41.5125C108.552 41.1233 108.806 40.7907 109.153 40.5863L112.345 38.7402C112.133 37.251 112.133 35.7392 112.345 34.25L109.153 32.4109C108.807 32.2051 108.555 31.8726 108.45 31.4839C108.345 31.0951 108.395 30.6808 108.591 30.3288L113.116 22.438C113.319 22.0893 113.651 21.8343 114.041 21.7279C114.43 21.6215 114.845 21.6721 115.198 21.8689L118.383 23.708C119.571 22.7824 120.881 22.0257 122.277 21.4594V17.7812C122.276 17.5786 122.315 17.3778 122.392 17.1905C122.469 17.0032 122.583 16.8329 122.726 16.6897C122.869 16.5464 123.039 16.433 123.227 16.3559C123.414 16.2788 123.615 16.2396 123.817 16.2405H132.84C133.042 16.2396 133.243 16.2787 133.431 16.3558C133.619 16.4328 133.79 16.5461 133.933 16.6893C134.077 16.8324 134.191 17.0026 134.269 17.19C134.347 17.3774 134.387 17.5783 134.387 17.7812V21.4594C135.78 22.0257 137.088 22.7824 138.274 23.708L141.466 21.8689C141.819 21.6739 142.234 21.6243 142.623 21.7306C143.011 21.8369 143.343 22.0907 143.548 22.438L148.073 30.2733C148.268 30.6261 148.318 31.0411 148.211 31.4299C148.105 31.8187 147.851 32.1508 147.504 32.3553L144.318 34.1945C144.419 34.9398 144.47 35.691 144.471 36.443C144.471 36.9635 144.471 37.4771 144.395 37.9837H143.735C142.917 37.9856 142.132 38.3115 141.554 38.8903C140.975 39.4691 140.649 40.2536 140.647 41.0721V42.5225C140.125 42.7852 139.62 43.0795 139.134 43.4039L137.878 42.6752C137.526 42.4713 137.138 42.3387 136.735 42.2852C136.332 42.2317 135.923 42.2582 135.53 42.3633C135.137 42.4684 134.769 42.65 134.447 42.8976C134.124 43.1453 133.854 43.4541 133.651 43.8065L130.563 49.1573C130.155 49.8672 130.045 50.7098 130.257 51.5007C130.469 52.2915 130.986 52.9661 131.694 53.3768L132.951 54.0708C132.951 54.3623 132.951 54.6538 132.951 54.9453C132.951 55.2368 132.951 55.5282 132.951 55.8197L131.694 56.5484L131.632 56.7011ZM142.264 68.9156V66.4658C141.2 66.0337 140.2 65.4568 139.294 64.7516L137.177 65.9592C136.825 66.1547 136.411 66.2054 136.022 66.1004C135.633 65.9955 135.301 65.7432 135.095 65.397L132.007 60.0393C131.812 59.6865 131.762 59.2715 131.868 58.8827C131.975 58.4939 132.228 58.1619 132.576 57.9573L134.693 56.7358C134.535 55.5985 134.535 54.4448 134.693 53.3074L132.548 52.079C132.201 51.8744 131.947 51.5424 131.841 51.1536C131.734 50.7648 131.784 50.3498 131.979 49.997L135.067 44.6393C135.273 44.2931 135.605 44.0408 135.994 43.9358C136.383 43.8309 136.797 43.8816 137.149 44.0771L139.273 45.2986C140.18 44.5933 141.179 44.0165 142.243 43.5844V41.1345C142.243 40.7259 142.406 40.334 142.695 40.0451C142.984 39.7562 143.375 39.5938 143.784 39.5938H149.968C150.17 39.5938 150.37 39.6337 150.557 39.7111C150.744 39.7885 150.914 39.902 151.057 40.0451C151.2 40.1882 151.314 40.358 151.391 40.5449C151.468 40.7319 151.508 40.9322 151.508 41.1345V43.5844C152.573 44.0151 153.573 44.592 154.479 45.2986L156.602 44.0771C156.954 43.8816 157.369 43.8309 157.757 43.9358C158.146 44.0408 158.479 44.2931 158.684 44.6393L161.773 49.997C161.968 50.349 162.019 50.7633 161.914 51.1521C161.809 51.5408 161.557 51.8733 161.211 52.079L159.087 53.3005C159.244 54.4378 159.244 55.5915 159.087 56.7289L161.211 57.9503C161.557 58.1561 161.809 58.4886 161.914 58.8773C162.019 59.266 161.968 59.6804 161.773 60.0324L158.684 65.3901C158.479 65.7362 158.146 65.9885 157.757 66.0935C157.369 66.1985 156.954 66.1478 156.602 65.9522L154.479 64.7308C153.573 65.4373 152.573 66.0143 151.508 66.445V68.8948C151.508 69.0971 151.468 69.2975 151.391 69.4844C151.314 69.6713 151.2 69.8412 151.057 69.9843C150.914 70.1273 150.744 70.2408 150.557 70.3182C150.37 70.3957 150.17 70.4355 149.968 70.4355H143.784C143.383 70.4301 142.999 70.2683 142.715 69.9844C142.431 69.7005 142.27 69.3171 142.264 68.9156ZM229.015 306.662C229.953 306.727 230.851 307.069 231.595 307.644C232.338 308.22 232.894 309.004 233.191 309.896C233.489 310.789 233.514 311.749 233.265 312.656C233.016 313.563 232.503 314.375 231.791 314.99L226.19 319.952C225.885 320.22 225.493 320.368 225.087 320.368C224.681 320.368 224.289 320.22 223.983 319.952L218.383 314.99C217.904 314.559 217.518 314.035 217.248 313.449C216.979 312.864 216.831 312.23 216.814 311.586C216.797 310.942 216.912 310.302 217.15 309.703C217.389 309.105 217.747 308.561 218.203 308.106C218.658 307.65 219.202 307.292 219.8 307.053C220.399 306.815 221.04 306.7 221.684 306.717C222.328 306.734 222.962 306.882 223.547 307.151C224.132 307.421 224.656 307.807 225.087 308.286C225.57 307.728 226.176 307.29 226.858 307.008C227.54 306.726 228.279 306.607 229.015 306.662ZM210.103 278.77C212.984 278.772 215.786 279.709 218.088 281.44C220.391 283.171 222.069 285.603 222.871 288.37C223.673 291.136 223.555 294.089 222.536 296.783C221.516 299.477 219.65 301.767 217.217 303.31C218.426 303.766 219.588 304.338 220.687 305.017C219.245 305.226 217.916 305.916 216.915 306.976C215.915 308.035 215.302 309.402 215.177 310.854C215.094 311.847 215.246 312.846 215.619 313.771C215.993 314.695 216.578 315.519 217.328 316.177L222.929 321.139C223.536 321.68 224.322 321.979 225.136 321.979C225.949 321.979 226.735 321.68 227.342 321.139L229.883 318.883C230.045 319.907 230.126 320.942 230.125 321.978V325.303C230.124 326.185 229.772 327.031 229.147 327.654C228.523 328.277 227.676 328.627 226.794 328.627H193.496C193.059 328.627 192.627 328.541 192.224 328.374C191.82 328.207 191.454 327.962 191.145 327.653C190.836 327.345 190.592 326.978 190.424 326.575C190.257 326.172 190.171 325.739 190.171 325.303V321.978C190.171 317.927 191.403 313.972 193.704 310.638C196.004 307.303 199.265 304.747 203.052 303.31C200.609 301.774 198.732 299.486 197.703 296.791C196.674 294.095 196.549 291.138 197.347 288.366C198.145 285.593 199.823 283.155 202.128 281.419C204.432 279.683 207.239 278.744 210.124 278.742L210.103 278.77ZM209.666 180.408C208.387 182.677 206.51 184.552 204.239 185.828C201.907 187.14 199.249 187.501 196.369 187.501H190.775V180.505H195.321C196.82 180.505 197.764 180.505 198.992 179.88C200.168 179.217 201.131 178.232 201.768 177.042C202.572 175.397 202.989 173.591 202.99 171.761C202.994 169.996 202.575 168.257 201.768 166.687C201.112 165.527 200.152 164.568 198.992 163.911C197.872 163.289 196.602 162.987 195.321 163.037H183.8V187.549C183.8 201.52 170.17 201.52 164.563 201.52C160.716 201.594 156.907 200.742 153.458 199.035C150.438 197.465 147.918 195.08 146.185 192.151C144.416 189.099 143.513 185.622 143.576 182.094V159.511H140.106L147.983 147.269L155.853 159.511H152.383V181.976C152.336 184.197 152.898 186.388 154.007 188.313C155.04 190.087 156.534 191.55 158.33 192.546C160.277 193.547 162.437 194.061 164.625 194.045C170.233 194.045 175.118 194.045 175.118 187.438V163.009V156.014H196.397C199.141 155.979 201.85 156.643 204.267 157.943C206.538 159.219 208.415 161.094 209.694 163.363C211.11 165.932 211.827 168.828 211.776 171.761C211.812 174.772 211.094 177.745 209.687 180.408H209.666ZM281.406 231.417C281.406 232.001 281.253 232.574 280.962 233.08C280.671 233.586 280.252 234.006 279.747 234.298C279.242 234.591 278.669 234.745 278.085 234.745C277.502 234.746 276.928 234.593 276.423 234.302C275.917 234.011 275.497 233.592 275.204 233.087C274.912 232.582 274.758 232.009 274.757 231.425C274.756 230.842 274.909 230.268 275.2 229.762C275.492 229.257 275.911 228.837 276.416 228.544V215.865L287.228 209.619L288.887 212.499L279.747 217.773V228.51C280.26 228.801 280.687 229.224 280.982 229.735C281.277 230.246 281.431 230.827 281.426 231.417H281.406ZM304.683 234.742C303.95 234.745 303.237 234.505 302.655 234.06C302.073 233.615 301.655 232.99 301.465 232.282C301.276 231.574 301.326 230.824 301.608 230.148C301.89 229.472 302.388 228.908 303.024 228.544V219.779H306.348V228.544C306.985 228.908 307.483 229.472 307.765 230.149C308.047 230.826 308.096 231.577 307.906 232.285C307.716 232.994 307.296 233.619 306.713 234.063C306.13 234.507 305.416 234.746 304.683 234.742ZM315.148 213.29L312.865 211.971C311.891 212.733 310.817 213.357 309.673 213.824V216.455C309.673 216.895 309.498 217.318 309.187 217.63C308.876 217.942 308.454 218.118 308.014 218.12H301.358C300.918 218.118 300.496 217.942 300.185 217.63C299.874 217.318 299.7 216.895 299.7 216.455V213.824C298.553 213.357 297.476 212.733 296.5 211.971L294.217 213.29C294.028 213.4 293.82 213.471 293.604 213.5C293.388 213.529 293.168 213.515 292.957 213.459C292.746 213.403 292.549 213.306 292.375 213.173C292.202 213.04 292.057 212.875 291.948 212.686L288.623 206.926C288.514 206.736 288.443 206.527 288.414 206.31C288.386 206.093 288.4 205.873 288.457 205.661C288.514 205.45 288.611 205.252 288.745 205.078C288.878 204.904 289.044 204.759 289.234 204.65L291.517 203.338C291.342 202.113 291.342 200.87 291.517 199.646L289.234 198.327C289.045 198.219 288.879 198.074 288.745 197.901C288.612 197.728 288.514 197.53 288.457 197.319C288.401 197.108 288.386 196.888 288.415 196.672C288.443 196.456 288.514 196.247 288.623 196.058L291.948 190.298C292.056 190.108 292.201 189.942 292.374 189.809C292.547 189.675 292.745 189.578 292.956 189.521C293.166 189.464 293.386 189.45 293.603 189.478C293.819 189.507 294.028 189.577 294.217 189.687L296.5 191.005C297.475 190.243 298.552 189.622 299.7 189.159V186.529C299.699 186.311 299.741 186.094 299.824 185.892C299.907 185.69 300.029 185.506 300.183 185.352C300.337 185.197 300.52 185.074 300.722 184.99C300.924 184.907 301.14 184.863 301.358 184.863H308.014C308.232 184.863 308.449 184.907 308.65 184.99C308.852 185.074 309.035 185.197 309.189 185.352C309.343 185.506 309.465 185.69 309.548 185.892C309.631 186.094 309.673 186.311 309.673 186.529V189.159C310.818 189.622 311.893 190.244 312.865 191.005L315.148 189.687C315.338 189.577 315.547 189.506 315.764 189.478C315.981 189.449 316.202 189.464 316.413 189.52C316.624 189.577 316.823 189.675 316.996 189.808C317.17 189.942 317.315 190.108 317.425 190.298L320.749 196.058C320.858 196.247 320.929 196.456 320.958 196.672C320.986 196.888 320.972 197.108 320.915 197.319C320.858 197.53 320.76 197.728 320.627 197.901C320.494 198.074 320.328 198.219 320.138 198.327L317.855 199.646C318.031 200.87 318.031 202.113 317.855 203.338L320.138 204.65C320.328 204.759 320.494 204.904 320.627 205.078C320.761 205.252 320.859 205.45 320.915 205.661C320.972 205.873 320.987 206.093 320.958 206.31C320.929 206.527 320.858 206.736 320.749 206.926L317.425 212.686C317.203 213.062 316.842 213.337 316.42 213.449C315.998 213.562 315.549 213.505 315.169 213.29H315.148ZM331.312 234.742C330.581 234.74 329.872 234.499 329.293 234.054C328.714 233.609 328.297 232.986 328.108 232.28C327.918 231.575 327.966 230.827 328.244 230.152C328.522 229.476 329.015 228.912 329.646 228.544V217.808L320.499 212.534L322.165 209.653L332.97 215.899V228.551C333.606 228.915 334.104 229.479 334.386 230.155C334.668 230.831 334.718 231.581 334.529 232.289C334.339 232.997 333.921 233.622 333.339 234.067C332.757 234.512 332.044 234.751 331.312 234.749V234.742Z" fill="#426DA9"/>
</svg>
