<svg width="64" height="64" viewBox="0 0 64 64" fill="none" xmlns="http://www.w3.org/2000/svg">
<path d="M13.1468 10.48C10.6668 12.9529 8.6998 15.8915 7.35894 19.127C6.01807 22.3625 5.32975 25.831 5.33351 29.3333C5.33351 36.6933 8.32018 43.36 13.1468 48.1866L16.9068 44.4266C14.919 42.4494 13.3438 40.097 12.2726 37.506C11.2014 34.915 10.6556 32.137 10.6668 29.3333C10.6668 23.44 13.0402 18.08 16.9068 14.24L13.1468 10.48ZM50.8535 10.48L47.0935 14.24C49.0793 16.2187 50.6532 18.5714 51.7243 21.162C52.7953 23.7527 53.3423 26.53 53.3335 29.3333C53.3335 35.2533 50.9602 40.5866 47.0935 44.4266L50.8535 48.1866C53.3336 45.7137 55.3006 42.7751 56.6414 39.5396C57.9823 36.3042 58.6706 32.8356 58.6668 29.3333C58.6668 21.9733 55.6802 15.3066 50.8535 10.48Z" fill="#132937"/>
<path d="M20.6933 18.0266C19.2048 19.5092 18.0239 21.2713 17.2185 23.2116C16.413 25.152 15.9989 27.2324 16 29.3333C16 33.7333 17.7867 37.7333 20.6933 40.6399L24.4533 36.8799C23.4619 35.8895 22.6759 34.7129 22.1405 33.4178C21.6051 32.1228 21.3308 30.7347 21.3333 29.3333C21.3333 26.3733 22.5333 23.7066 24.4533 21.7866L20.6933 18.0266ZM43.3067 18.0266L39.5467 21.7866C40.5381 22.7771 41.3241 23.9536 41.8595 25.2487C42.3949 26.5438 42.6692 27.9319 42.6667 29.3333C42.6667 32.2933 41.4667 34.9599 39.5467 36.8799L43.3067 40.6399C44.7952 39.1574 45.9761 37.3953 46.7816 35.4549C47.587 33.5146 48.0011 31.4342 48 29.3333C48 24.9333 46.2133 20.9333 43.3067 18.0266Z" fill="#132937"/>
<path d="M32.0002 24C30.5857 24 29.2291 24.5619 28.2289 25.5621C27.2287 26.5623 26.6668 27.9188 26.6668 29.3333C26.6668 30.7478 27.2287 32.1044 28.2289 33.1046C29.2291 34.1048 30.5857 34.6667 32.0002 34.6667C33.4146 34.6667 34.7712 34.1048 35.7714 33.1046C36.7716 32.1044 37.3335 30.7478 37.3335 29.3333C37.3335 27.9188 36.7716 26.5623 35.7714 25.5621C34.7712 24.5619 33.4146 24 32.0002 24ZM29.3335 40V50.6667H26.6668C25.9596 50.6667 25.2813 50.9476 24.7812 51.4477C24.2811 51.9478 24.0002 52.6261 24.0002 53.3333H5.3335V58.6667H24.0002C24.0002 59.3739 24.2811 60.0522 24.7812 60.5523C25.2813 61.0524 25.9596 61.3333 26.6668 61.3333H37.3335C38.0407 61.3333 38.719 61.0524 39.2191 60.5523C39.7192 60.0522 40.0002 59.3739 40.0002 58.6667H58.6668V53.3333H40.0002C40.0002 52.6261 39.7192 51.9478 39.2191 51.4477C38.719 50.9476 38.0407 50.6667 37.3335 50.6667H34.6668V40H29.3335Z" fill="#132937"/>
</svg>
