<svg width="64" height="52" viewBox="0 0 64 52" fill="none" xmlns="http://www.w3.org/2000/svg">
<g clip-path="url(#clip0_266_2746)">
<path d="M36.8 0C39.45 0 41.6 2.15714 41.6 4.81818V9.63636H46.67C48.37 9.63636 49.91 10.3089 51.2 11.5134L58.93 19.2727C60.13 20.4773 60.8 22.1134 60.8 23.8199V35.3333C62.57 35.3333 64 36.7687 64 38.5455C64 40.3222 62.57 41.7576 60.8 41.7576H57.6C57.6 47.0777 53.3 51.3939 48 51.3939C42.61 51.3939 38.4 47.0777 38.4 41.7576H25.6C25.6 47.0777 21.3 51.3939 16 51.3939C10.61 51.3939 6.4 47.0777 6.4 41.7576H4.8C2.149 41.7576 0 39.5994 0 36.9394V4.81818C0 2.15714 2.149 0 4.8 0H36.8ZM41.6 16.0606V25.697H54.4V23.8199L46.67 16.0606H41.6Z" fill="#132937"/>
<path d="M16.0002 36.9395C13.3502 36.9395 11.2002 39.0976 11.2002 41.7576C11.2002 44.4177 13.3502 46.5758 16.0002 46.5758C18.6502 46.5758 20.8002 44.4177 20.8002 41.7576C20.8002 39.0976 18.6502 36.9395 16.0002 36.9395ZM48.0002 46.5758C50.6502 46.5758 52.8002 44.4177 52.8002 41.7576C52.8002 39.0976 50.6502 36.9395 48.0002 36.9395C45.3502 36.9395 43.2002 39.0976 43.2002 41.7576C43.2002 44.4177 45.3502 46.5758 48.0002 46.5758Z" fill="#132937"/>
</g>
<defs>
<clipPath id="clip0_266_2746">
<rect width="64" height="51.3939" fill="white"/>
</clipPath>
</defs>
</svg>
