<svg width="64" height="57" viewBox="0 0 64 57" fill="none" xmlns="http://www.w3.org/2000/svg">
<path d="M19.2 28.4444V22.7556H44.8V28.4444H19.2ZM38.4 39.8222V36.9778H44.8V39.8222H38.4ZM57.6 12.8C57.6005 13.6827 57.293 14.5438 56.7199 15.2647C56.1468 15.9855 55.3362 16.5307 54.4 16.8249V46.9333C54.4 47.3105 54.2314 47.6723 53.9314 47.939C53.6313 48.2057 53.2243 48.3555 52.8 48.3555H32V35.5556C32 35.1784 31.8314 34.8166 31.5314 34.5499C31.2313 34.2832 30.8243 34.1333 30.4 34.1333H17.6C17.1756 34.1333 16.7687 34.2832 16.4686 34.5499C16.1686 34.8166 16 35.1784 16 35.5556V48.3555H11.2C10.7756 48.3555 10.3687 48.2057 10.0686 47.939C9.76855 47.6723 9.59998 47.3105 9.59998 46.9333V16.8249C8.53065 16.4905 7.62895 15.8305 7.0546 14.9618C6.48024 14.0931 6.27028 13.0718 6.46192 12.0787C6.65356 11.0856 7.23442 10.1848 8.10163 9.53589C8.96883 8.88698 10.0664 8.53183 11.2 8.53333H52.8C54.073 8.53333 55.2939 8.98285 56.1941 9.78301C57.0943 10.5832 57.6 11.6684 57.6 12.8ZM9.59998 12.8C9.59998 13.1772 9.76855 13.5389 10.0686 13.8057C10.3687 14.0724 10.7756 14.2222 11.2 14.2222H52.8C53.2243 14.2222 53.6313 14.0724 53.9314 13.8057C54.2314 13.5389 54.4 13.1772 54.4 12.8C54.4 12.4228 54.2314 12.0611 53.9314 11.7943C53.6313 11.5276 53.2243 11.3778 52.8 11.3778H11.2C10.7756 11.3778 10.3687 11.5276 10.0686 11.7943C9.76855 12.0611 9.59998 12.4228 9.59998 12.8Z" fill="#132937"/>
<path d="M17.6 19.9111C17.1757 19.9111 16.7687 20.061 16.4686 20.3277C16.1686 20.5944 16 20.9562 16 21.3334V29.8667C16 30.2439 16.1686 30.6056 16.4686 30.8724C16.7687 31.1391 17.1757 31.2889 17.6 31.2889H46.4C46.8243 31.2889 47.2313 31.1391 47.5314 30.8724C47.8314 30.6056 48 30.2439 48 29.8667V21.3334C48 20.9562 47.8314 20.5944 47.5314 20.3277C47.2313 20.061 46.8243 19.9111 46.4 19.9111H17.6ZM36.8 34.1334C36.3757 34.1334 35.9687 34.2832 35.6686 34.5499C35.3686 34.8166 35.2 35.1784 35.2 35.5556V41.2445C35.2 41.6217 35.3686 41.9834 35.6686 42.2501C35.9687 42.5168 36.3757 42.6667 36.8 42.6667H46.4C46.8243 42.6667 47.2313 42.5168 47.5314 42.2501C47.8314 41.9834 48 41.6217 48 41.2445V35.5556C48 35.1784 47.8314 34.8166 47.5314 34.5499C47.2313 34.2832 46.8243 34.1334 46.4 34.1334H36.8Z" fill="#132937"/>
<path d="M19.2 48.3556H28.8V36.9778H19.2V48.3556Z" fill="#132937"/>
</svg>
