<svg width="72" height="72" viewBox="0 0 72 72" fill="none" xmlns="http://www.w3.org/2000/svg">
<circle cx="36" cy="36" r="36" fill="#1CE559"/>
<path fill-rule="evenodd" clip-rule="evenodd" d="M45.025 39.97C44.5283 39.7217 42.0933 38.525 41.64 38.3584C41.1866 38.1934 40.8566 38.1117 40.525 38.6084C40.195 39.1017 39.2466 40.2184 38.9583 40.5484C38.6683 40.88 38.38 40.92 37.885 40.6734C37.39 40.4234 35.7933 39.9017 33.9016 38.215C32.43 36.9017 31.435 35.28 31.1466 34.7834C30.8583 34.2884 31.115 34.02 31.3633 33.7734C31.5866 33.5517 31.8583 33.195 32.1066 32.9067C32.355 32.6167 32.4366 32.41 32.6016 32.0784C32.7683 31.7484 32.685 31.46 32.56 31.2117C32.4366 30.9634 31.4466 28.525 31.0333 27.5334C30.6316 26.5684 30.2233 26.7001 29.92 26.6834C29.63 26.6701 29.3 26.6667 28.97 26.6667C28.64 26.6667 28.1033 26.7901 27.65 27.2867C27.195 27.7817 25.9167 28.98 25.9167 31.4184C25.9167 33.855 27.69 36.21 27.9383 36.5417C28.1866 36.8717 31.43 41.875 36.3983 44.02C37.5816 44.53 38.5033 44.835 39.2216 45.0617C40.4083 45.44 41.4883 45.3867 42.3416 45.2584C43.2916 45.1167 45.2716 44.06 45.685 42.9034C46.0966 41.7467 46.0966 40.755 45.9733 40.5484C45.85 40.3417 45.52 40.2184 45.0233 39.97H45.025ZM35.9883 52.3083H35.9816C33.0307 52.3089 30.1339 51.5156 27.595 50.0117L26.995 49.655L20.7583 51.2917L22.4233 45.2117L22.0317 44.5884C20.3819 41.9623 19.5088 38.923 19.5133 35.8217C19.5167 26.7384 26.9066 19.3484 35.995 19.3484C40.395 19.3484 44.5316 21.0651 47.6416 24.1784C49.1756 25.706 50.3914 27.5227 51.2187 29.5232C52.0461 31.5238 52.4685 33.6685 52.4616 35.8334C52.4583 44.9167 45.0683 52.3083 35.9883 52.3083ZM50.0083 21.8134C48.1719 19.9649 45.987 18.4993 43.5801 17.5014C41.1732 16.5035 38.5922 15.9932 35.9866 16.0001C25.0633 16.0001 16.17 24.8917 16.1667 35.82C16.1616 39.2979 17.074 42.7157 18.8117 45.7283L16 56L26.5066 53.2433C29.4131 54.8269 32.6701 55.6566 35.98 55.6567H35.9883C46.9116 55.6567 55.8049 46.765 55.8083 35.835C55.8163 33.2305 55.3079 30.6502 54.3123 28.2434C53.3168 25.8367 51.8539 23.6512 50.0083 21.8134Z" fill="white"/>
</svg>
